STARTFONT 2.1
COMMENT
COMMENT Converted from OpenType font "Retro Gaming.ttf" by "otf2bdf 3.0".
COMMENT
FONT -FreeType-Retro Gaming-Medium-R-Normal--24-170-100-100-P-151-ISO10646-1
SIZE 17 100 100
FONTBOUNDINGBOX 31 31 -1 -7
STARTPROPERTIES 19
FOUNDRY "FreeType"
FAMILY_NAME "Retro Gaming"
WEIGHT_NAME "Medium"
SLANT "R"
SETWIDTH_NAME "Normal"
ADD_STYLE_NAME ""
PIXEL_SIZE 24
POINT_SIZE 170
RESOLUTION_X 100
RESOLUTION_Y 100
SPACING "P"
AVERAGE_WIDTH 151
CHARSET_REGISTRY "ISO10646"
CHARSET_ENCODING "1"
FONT_ASCENT 24
FONT_DESCENT 6
COPYRIGHT "Copyright © 2019 by Vasily Draigo aka Daymarius. All rights reserved."
_OTF_FONTFILE "Retro Gaming.ttf"
_OTF_PSNAME "RetroGaming"
ENDPROPERTIES
CHARS 316
STARTCHAR 0020
ENCODING 32
SWIDTH 381 0
DWIDTH 9 0
BBX 0 0 0 0
BITMAP
ENDCHAR
STARTCHAR 0021
ENCODING 33
SWIDTH 296 0
DWIDTH 7 0
BBX 4 18 2 0
BITMAP
F0
F0
F0
F0
F0
F0
F0
F0
F0
F0
F0
00
00
00
F0
F0
F0
F0
ENDCHAR
STARTCHAR 0022
ENCODING 34
SWIDTH 592 0
DWIDTH 14 0
BBX 11 7 2 11
BITMAP
F1E0
F1E0
F1E0
F1E0
F1E0
F1E0
F1E0
ENDCHAR
STARTCHAR 0023
ENCODING 35
SWIDTH 1016 0
DWIDTH 24 0
BBX 21 18 2 0
BITMAP
0F0F80
0F0F80
0F0F80
0F0F80
0F0F80
FFFFF8
FFFFF8
0F0F80
0F0F80
0F0F80
0F0F80
0F0F80
FFFFF8
FFFFF8
0F0F80
0F0F80
0F0F80
0F0F80
ENDCHAR
STARTCHAR 0024
ENCODING 36
SWIDTH 762 0
DWIDTH 18 0
BBX 15 26 2 -4
BITMAP
03C0
03C0
03C0
03C0
3FF8
3FF8
3198
F19E
F19E
F180
F180
3FF8
3FF8
019E
019E
019E
019E
019E
F19E
F19E
3FF8
3FF8
03C0
03C0
03C0
03C0
ENDCHAR
STARTCHAR 0025
ENCODING 37
SWIDTH 762 0
DWIDTH 18 0
BBX 15 18 2 0
BITMAP
3C1E
3C1E
CC1E
CC1E
C018
F078
F078
01E0
01E0
0180
0F80
0C00
3C1E
3C1E
F066
F066
F078
F078
ENDCHAR
STARTCHAR 0026
ENCODING 38
SWIDTH 847 0
DWIDTH 20 0
BBX 17 18 2 0
BITMAP
3FF800
3FF800
301800
F01E00
F01E00
F00000
F00000
3F0000
3F0000
F03F80
F03F80
F03C00
F03C00
F03C00
F03C00
F03C00
3FF000
3FF000
ENDCHAR
STARTCHAR 0027
ENCODING 39
SWIDTH 296 0
DWIDTH 7 0
BBX 4 7 2 11
BITMAP
F0
F0
F0
F0
F0
F0
F0
ENDCHAR
STARTCHAR 0028
ENCODING 40
SWIDTH 465 0
DWIDTH 11 0
BBX 8 18 2 0
BITMAP
0F
0F
0C
3C
3C
F0
F0
F0
F0
F0
F0
F0
F0
F0
3C
3C
0F
0F
ENDCHAR
STARTCHAR 0029
ENCODING 41
SWIDTH 465 0
DWIDTH 11 0
BBX 8 18 2 0
BITMAP
F0
F0
30
3C
3C
0F
0F
0F
0F
0F
0F
0F
0F
0F
3C
3C
F0
F0
ENDCHAR
STARTCHAR 002A
ENCODING 42
SWIDTH 847 0
DWIDTH 20 0
BBX 17 11 2 4
BITMAP
3E3E00
3E3E00
03F000
03F000
FFFF80
FFFF80
03F000
03F000
03F000
3E3E00
3E3E00
ENDCHAR
STARTCHAR 002B
ENCODING 43
SWIDTH 677 0
DWIDTH 16 0
BBX 13 11 2 3
BITMAP
0F00
0F00
0F00
0F00
FFF8
FFF8
0F00
0F00
0F00
0F00
0F00
ENDCHAR
STARTCHAR 002C
ENCODING 44
SWIDTH 296 0
DWIDTH 7 0
BBX 6 6 0 -2
BITMAP
3C
3C
3C
3C
F0
F0
ENDCHAR
STARTCHAR 002D
ENCODING 45
SWIDTH 508 0
DWIDTH 12 0
BBX 9 2 2 8
BITMAP
FF80
FF80
ENDCHAR
STARTCHAR 002E
ENCODING 46
SWIDTH 296 0
DWIDTH 7 0
BBX 4 4 2 0
BITMAP
F0
F0
F0
F0
ENDCHAR
STARTCHAR 002F
ENCODING 47
SWIDTH 804 0
DWIDTH 19 0
BBX 16 18 2 0
BITMAP
001F
001F
001F
001F
0018
0078
0078
01E0
01E0
0F00
0F00
3C00
3C00
3000
F000
F000
F000
F000
ENDCHAR
STARTCHAR 0030
ENCODING 48
SWIDTH 762 0
DWIDTH 18 0
BBX 15 18 2 0
BITMAP
3FF8
3FF8
3018
F01E
F01E
F07E
F07E
F3FE
F3FE
FF9E
FF9E
FC1E
FC1E
F01E
F01E
F01E
3FF8
3FF8
ENDCHAR
STARTCHAR 0031
ENCODING 49
SWIDTH 508 0
DWIDTH 12 0
BBX 9 18 2 0
BITMAP
3C00
3C00
3C00
FC00
FC00
3C00
3C00
3C00
3C00
3C00
3C00
3C00
3C00
3C00
3C00
3C00
FF80
FF80
ENDCHAR
STARTCHAR 0032
ENCODING 50
SWIDTH 762 0
DWIDTH 18 0
BBX 15 18 2 0
BITMAP
3FF8
3FF8
3018
F01E
F01E
001E
001E
3FF8
3FF8
F000
F000
F000
F000
F000
F01E
F01E
FFFE
FFFE
ENDCHAR
STARTCHAR 0033
ENCODING 51
SWIDTH 762 0
DWIDTH 18 0
BBX 15 18 2 0
BITMAP
FFFE
FFFE
0078
0078
0078
01E0
01E0
0FF8
0FF8
001E
001E
001E
001E
001E
F01E
F01E
3FF8
3FF8
ENDCHAR
STARTCHAR 0034
ENCODING 52
SWIDTH 762 0
DWIDTH 18 0
BBX 15 18 2 0
BITMAP
03FE
03FE
031E
0F1E
0F1E
3C1E
3C1E
F01E
F01E
FFFE
FFFE
001E
001E
001E
001E
001E
001E
001E
ENDCHAR
STARTCHAR 0035
ENCODING 53
SWIDTH 762 0
DWIDTH 18 0
BBX 15 18 2 0
BITMAP
FFF8
FFF8
F000
F000
F000
F000
F000
FFF8
FFF8
001E
001E
001E
001E
001E
F01E
F01E
3FF8
3FF8
ENDCHAR
STARTCHAR 0036
ENCODING 54
SWIDTH 762 0
DWIDTH 18 0
BBX 15 18 2 0
BITMAP
3FF8
3FF8
3018
F01E
F01E
F000
F000
FFF8
FFF8
F01E
F01E
F01E
F01E
F01E
F01E
F01E
3FF8
3FF8
ENDCHAR
STARTCHAR 0037
ENCODING 55
SWIDTH 762 0
DWIDTH 18 0
BBX 15 18 2 0
BITMAP
FFFE
FFFE
F01E
F01E
F01E
0078
0078
01E0
01E0
0F00
0F00
0F00
0F00
0F00
0F00
0F00
0F00
0F00
ENDCHAR
STARTCHAR 0038
ENCODING 56
SWIDTH 762 0
DWIDTH 18 0
BBX 15 18 2 0
BITMAP
3FF8
3FF8
3018
F01E
F01E
F01E
F01E
3FF8
3FF8
F01E
F01E
F01E
F01E
F01E
F01E
F01E
3FF8
3FF8
ENDCHAR
STARTCHAR 0039
ENCODING 57
SWIDTH 762 0
DWIDTH 18 0
BBX 15 18 2 0
BITMAP
3FF8
3FF8
F01E
F01E
F01E
F01E
F01E
F01E
F01E
3FFE
3FFE
001E
001E
001E
F01E
F01E
3FF8
3FF8
ENDCHAR
STARTCHAR 003A
ENCODING 58
SWIDTH 296 0
DWIDTH 7 0
BBX 4 13 2 0
BITMAP
F0
F0
F0
F0
00
00
00
00
00
F0
F0
F0
F0
ENDCHAR
STARTCHAR 003B
ENCODING 59
SWIDTH 296 0
DWIDTH 7 0
BBX 6 15 0 -2
BITMAP
3C
3C
3C
3C
00
00
00
00
00
3C
3C
3C
3C
F0
F0
ENDCHAR
STARTCHAR 003C
ENCODING 60
SWIDTH 592 0
DWIDTH 14 0
BBX 11 15 2 0
BITMAP
01E0
01E0
0F00
0F00
3C00
3C00
F000
F000
3000
3C00
3C00
0F00
0F00
01E0
01E0
ENDCHAR
STARTCHAR 003D
ENCODING 61
SWIDTH 592 0
DWIDTH 14 0
BBX 11 7 2 4
BITMAP
FFE0
FFE0
0000
0000
0000
FFE0
FFE0
ENDCHAR
STARTCHAR 003E
ENCODING 62
SWIDTH 592 0
DWIDTH 14 0
BBX 11 15 2 0
BITMAP
F000
F000
3C00
3C00
0F00
0F00
01E0
01E0
0100
0F00
0F00
3C00
3C00
F000
F000
ENDCHAR
STARTCHAR 003F
ENCODING 63
SWIDTH 762 0
DWIDTH 18 0
BBX 15 18 2 0
BITMAP
3FF8
3FF8
3018
F01E
F01E
001E
001E
01F8
01F8
0F00
0F00
0000
0000
0000
0F00
0F00
0F00
0F00
ENDCHAR
STARTCHAR 0040
ENCODING 64
SWIDTH 762 0
DWIDTH 18 0
BBX 15 18 2 0
BITMAP
3FF8
3FF8
0000
C006
C006
CFE6
CFE6
CC66
CC66
CC66
CC66
CC66
CFFE
CFFE
C000
C000
3FF8
3FF8
ENDCHAR
STARTCHAR 0041
ENCODING 65
SWIDTH 762 0
DWIDTH 18 0
BBX 15 18 2 0
BITMAP
07E0
07E0
3C78
3C78
3C78
F01E
F01E
F01E
F01E
FFFE
FFFE
F01E
F01E
F01E
F01E
F01E
F01E
F01E
ENDCHAR
STARTCHAR 0042
ENCODING 66
SWIDTH 762 0
DWIDTH 18 0
BBX 15 18 2 0
BITMAP
FFF8
FFF8
F018
F01E
F01E
F01E
F01E
FFF8
FFF8
F01E
F01E
F01E
F01E
F01E
F01E
F01E
FFF8
FFF8
ENDCHAR
STARTCHAR 0043
ENCODING 67
SWIDTH 762 0
DWIDTH 18 0
BBX 15 18 2 0
BITMAP
0FF8
0FF8
0C18
3C1E
3C1E
F000
F000
F000
F000
F000
F000
F000
F000
F000
3C1E
3C1E
0FF8
0FF8
ENDCHAR
STARTCHAR 0044
ENCODING 68
SWIDTH 762 0
DWIDTH 18 0
BBX 15 18 2 0
BITMAP
FFE0
FFE0
F060
F078
F078
F01E
F01E
F01E
F01E
F01E
F01E
F01E
F01E
F01E
F078
F078
FFE0
FFE0
ENDCHAR
STARTCHAR 0045
ENCODING 69
SWIDTH 762 0
DWIDTH 18 0
BBX 15 18 2 0
BITMAP
FFFE
FFFE
F000
F000
F000
F000
F000
FFE0
FFE0
F000
F000
F000
F000
F000
F000
F000
FFFE
FFFE
ENDCHAR
STARTCHAR 0046
ENCODING 70
SWIDTH 762 0
DWIDTH 18 0
BBX 15 18 2 0
BITMAP
FFFE
FFFE
F000
F000
F000
F000
F000
FFE0
FFE0
F000
F000
F000
F000
F000
F000
F000
F000
F000
ENDCHAR
STARTCHAR 0047
ENCODING 71
SWIDTH 762 0
DWIDTH 18 0
BBX 15 18 2 0
BITMAP
0FF8
0FF8
0C18
3C1E
3C1E
F000
F000
F000
F3FE
F3FE
F01E
F01E
F01E
F01E
3C1E
3C1E
0FFE
0FFE
ENDCHAR
STARTCHAR 0048
ENCODING 72
SWIDTH 762 0
DWIDTH 18 0
BBX 15 18 2 0
BITMAP
F01E
F01E
F01E
F01E
F01E
F01E
F01E
FFFE
FFFE
F01E
F01E
F01E
F01E
F01E
F01E
F01E
F01E
F01E
ENDCHAR
STARTCHAR 0049
ENCODING 73
SWIDTH 677 0
DWIDTH 16 0
BBX 13 18 2 0
BITMAP
FFF8
FFF8
0F00
0F00
0F00
0F00
0F00
0F00
0F00
0F00
0F00
0F00
0F00
0F00
0F00
0F00
FFF8
FFF8
ENDCHAR
STARTCHAR 004A
ENCODING 74
SWIDTH 762 0
DWIDTH 18 0
BBX 15 18 2 0
BITMAP
0FFE
0FFE
001E
001E
001E
001E
001E
001E
001E
001E
001E
001E
F01E
F01E
F01E
F01E
3FF8
3FF8
ENDCHAR
STARTCHAR 004B
ENCODING 75
SWIDTH 762 0
DWIDTH 18 0
BBX 15 18 2 0
BITMAP
F01E
F01E
F018
F078
F078
F1E0
F1E0
FF80
FF80
F1E0
F1E0
F078
F078
F018
F01E
F01E
F01E
F01E
ENDCHAR
STARTCHAR 004C
ENCODING 76
SWIDTH 677 0
DWIDTH 16 0
BBX 13 18 2 0
BITMAP
F000
F000
F000
F000
F000
F000
F000
F000
F000
F000
F000
F000
F000
F000
F000
F000
FFF8
FFF8
ENDCHAR
STARTCHAR 004D
ENCODING 77
SWIDTH 762 0
DWIDTH 18 0
BBX 15 18 2 0
BITMAP
C006
C006
C006
F81E
F81E
FE7E
FE7E
FFFE
FFFE
F99E
F99E
F81E
F81E
F81E
F81E
F81E
F81E
F81E
ENDCHAR
STARTCHAR 004E
ENCODING 78
SWIDTH 762 0
DWIDTH 18 0
BBX 15 18 2 0
BITMAP
C01E
C01E
C01E
F01E
F01E
FC1E
FC1E
FF9E
FF9E
F3FE
F3FE
F07E
F07E
F01E
F01E
F006
F006
F006
ENDCHAR
STARTCHAR 004F
ENCODING 79
SWIDTH 762 0
DWIDTH 18 0
BBX 15 18 2 0
BITMAP
3FF8
3FF8
3018
F01E
F01E
F01E
F01E
F01E
F01E
F01E
F01E
F01E
F01E
F01E
F01E
F01E
3FF8
3FF8
ENDCHAR
STARTCHAR 0050
ENCODING 80
SWIDTH 762 0
DWIDTH 18 0
BBX 15 18 2 0
BITMAP
FFF8
FFF8
F018
F01E
F01E
F01E
F01E
FFF8
FFF8
F000
F000
F000
F000
F000
F000
F000
F000
F000
ENDCHAR
STARTCHAR 0051
ENCODING 81
SWIDTH 762 0
DWIDTH 18 0
BBX 15 18 2 0
BITMAP
3FF8
3FF8
3018
F01E
F01E
F01E
F01E
F01E
F01E
F01E
F01E
F01E
F3FE
F3FE
F078
F078
3FE6
3FE6
ENDCHAR
STARTCHAR 0052
ENCODING 82
SWIDTH 762 0
DWIDTH 18 0
BBX 15 18 2 0
BITMAP
FFF8
FFF8
F018
F01E
F01E
F01E
F01E
FFF8
FFF8
F01E
F01E
F01E
F01E
F01E
F01E
F01E
F01E
F01E
ENDCHAR
STARTCHAR 0053
ENCODING 83
SWIDTH 762 0
DWIDTH 18 0
BBX 15 18 2 0
BITMAP
3FF8
3FF8
3018
F01E
F01E
F000
F000
3FF8
3FF8
001E
001E
001E
001E
001E
F01E
F01E
3FF8
3FF8
ENDCHAR
STARTCHAR 0054
ENCODING 84
SWIDTH 762 0
DWIDTH 18 0
BBX 15 18 2 0
BITMAP
FFFE
FFFE
03C0
03C0
03C0
03C0
03C0
03C0
03C0
03C0
03C0
03C0
03C0
03C0
03C0
03C0
03C0
03C0
ENDCHAR
STARTCHAR 0055
ENCODING 85
SWIDTH 762 0
DWIDTH 18 0
BBX 15 18 2 0
BITMAP
F01E
F01E
F01E
F01E
F01E
F01E
F01E
F01E
F01E
F01E
F01E
F01E
F01E
F01E
F01E
3018
3FF8
3FF8
ENDCHAR
STARTCHAR 0056
ENCODING 86
SWIDTH 804 0
DWIDTH 19 0
BBX 16 18 2 0
BITMAP
F00F
F00F
F00F
F00F
F00F
F00F
F00F
F00F
F00F
F00F
F00F
3008
3C78
3C78
07F0
07F0
0180
0180
ENDCHAR
STARTCHAR 0057
ENCODING 87
SWIDTH 847 0
DWIDTH 20 0
BBX 17 18 2 0
BITMAP
F0C780
F0C780
F0C780
F0C780
F0C780
F0C780
F0C780
F0C780
F0C780
F0C780
F0C780
F0C780
FFFF80
FFFF80
FE1F80
300600
300600
300600
ENDCHAR
STARTCHAR 0058
ENCODING 88
SWIDTH 762 0
DWIDTH 18 0
BBX 15 18 2 0
BITMAP
F01E
F01E
F01E
F01E
3018
3C78
3C78
07E0
07E0
3C78
3C78
F01E
F01E
F01E
F01E
F01E
F01E
F01E
ENDCHAR
STARTCHAR 0059
ENCODING 89
SWIDTH 720 0
DWIDTH 17 0
BBX 14 18 2 0
BITMAP
F01C
F01C
F01C
F01C
F01C
F01C
F01C
3C78
3C78
07E0
07E0
03C0
03C0
03C0
03C0
03C0
03C0
03C0
ENDCHAR
STARTCHAR 005A
ENCODING 90
SWIDTH 804 0
DWIDTH 19 0
BBX 16 18 2 0
BITMAP
FFFF
FFFF
001F
001F
001F
0078
0078
01E0
01E0
0F00
0F00
3C00
3C00
F000
F000
F000
FFFF
FFFF
ENDCHAR
STARTCHAR 005B
ENCODING 91
SWIDTH 508 0
DWIDTH 12 0
BBX 9 18 2 0
BITMAP
FF80
FF80
F000
F000
F000
F000
F000
F000
F000
F000
F000
F000
F000
F000
F000
F000
FF80
FF80
ENDCHAR
STARTCHAR 005C
ENCODING 92
SWIDTH 804 0
DWIDTH 19 0
BBX 16 18 2 0
BITMAP
F000
F000
F000
F000
3000
3C00
3C00
0F00
0F00
01E0
01E0
0078
0078
0018
001F
001F
001F
001F
ENDCHAR
STARTCHAR 005D
ENCODING 93
SWIDTH 508 0
DWIDTH 12 0
BBX 8 18 3 0
BITMAP
FF
FF
0F
0F
0F
0F
0F
0F
0F
0F
0F
0F
0F
0F
0F
0F
FF
FF
ENDCHAR
STARTCHAR 005E
ENCODING 94
SWIDTH 762 0
DWIDTH 18 0
BBX 15 7 2 11
BITMAP
07E0
07E0
3C78
3C78
3C78
F01E
F01E
ENDCHAR
STARTCHAR 005F
ENCODING 95
SWIDTH 592 0
DWIDTH 14 0
BBX 11 2 2 0
BITMAP
FFE0
FFE0
ENDCHAR
STARTCHAR 0060
ENCODING 96
SWIDTH 465 0
DWIDTH 11 0
BBX 8 7 2 11
BITMAP
F0
F0
3C
3C
3C
0F
0F
ENDCHAR
STARTCHAR 0061
ENCODING 97
SWIDTH 762 0
DWIDTH 18 0
BBX 15 11 2 0
BITMAP
3FF8
3FF8
001E
001E
001E
3FFE
3FFE
F01E
F01E
3FFE
3FFE
ENDCHAR
STARTCHAR 0062
ENCODING 98
SWIDTH 762 0
DWIDTH 18 0
BBX 15 18 2 0
BITMAP
F000
F000
F000
F000
F000
F000
F000
FFF8
FFF8
F01E
F01E
F01E
F01E
F01E
F01E
F01E
FFF8
FFF8
ENDCHAR
STARTCHAR 0063
ENCODING 99
SWIDTH 762 0
DWIDTH 18 0
BBX 15 11 2 0
BITMAP
3FF8
3FF8
F01E
F01E
F000
F000
F000
F01E
F01E
3FF8
3FF8
ENDCHAR
STARTCHAR 0064
ENCODING 100
SWIDTH 762 0
DWIDTH 18 0
BBX 15 18 2 0
BITMAP
001E
001E
001E
001E
001E
001E
001E
3FFE
3FFE
F01E
F01E
F01E
F01E
F01E
F01E
F01E
3FFE
3FFE
ENDCHAR
STARTCHAR 0065
ENCODING 101
SWIDTH 762 0
DWIDTH 18 0
BBX 15 11 2 0
BITMAP
3FF8
3FF8
F01E
F01E
F01E
FFFE
FFFE
F000
F000
3FF8
3FF8
ENDCHAR
STARTCHAR 0066
ENCODING 102
SWIDTH 592 0
DWIDTH 14 0
BBX 11 18 2 0
BITMAP
07E0
07E0
0400
3C00
3C00
3C00
3C00
FFE0
FFE0
3C00
3C00
3C00
3C00
3C00
3C00
3C00
3C00
3C00
ENDCHAR
STARTCHAR 0067
ENCODING 103
SWIDTH 762 0
DWIDTH 18 0
BBX 15 18 2 -7
BITMAP
3FFE
3FFE
F01E
F01E
F01E
F01E
F01E
F01E
F01E
3FFE
3FFE
001E
001E
001E
001E
001E
3FF8
3FF8
ENDCHAR
STARTCHAR 0068
ENCODING 104
SWIDTH 762 0
DWIDTH 18 0
BBX 15 18 2 0
BITMAP
F000
F000
F000
F000
F000
F000
F000
FFF8
FFF8
F01E
F01E
F01E
F01E
F01E
F01E
F01E
F01E
F01E
ENDCHAR
STARTCHAR 0069
ENCODING 105
SWIDTH 296 0
DWIDTH 7 0
BBX 4 18 2 0
BITMAP
F0
F0
F0
F0
00
00
00
F0
F0
F0
F0
F0
F0
F0
F0
F0
F0
F0
ENDCHAR
STARTCHAR 006A
ENCODING 106
SWIDTH 592 0
DWIDTH 14 0
BBX 11 20 2 -2
BITMAP
01E0
01E0
01E0
01E0
0000
0000
0000
01E0
01E0
01E0
01E0
01E0
01E0
01E0
01E0
01E0
F1E0
F1E0
1F80
1F80
ENDCHAR
STARTCHAR 006B
ENCODING 107
SWIDTH 677 0
DWIDTH 16 0
BBX 13 18 2 0
BITMAP
F000
F000
F000
F000
F000
F000
F000
F078
F078
F1E0
F1E0
F1E0
FF80
FF80
F1E0
F1E0
F078
F078
ENDCHAR
STARTCHAR 006C
ENCODING 108
SWIDTH 381 0
DWIDTH 9 0
BBX 6 18 2 0
BITMAP
F0
F0
F0
F0
F0
F0
F0
F0
F0
F0
F0
F0
F0
F0
F0
30
3C
3C
ENDCHAR
STARTCHAR 006D
ENCODING 109
SWIDTH 762 0
DWIDTH 18 0
BBX 15 11 2 0
BITMAP
FFF8
FFF8
F19E
F19E
F19E
F19E
F19E
F19E
F19E
F19E
F19E
ENDCHAR
STARTCHAR 006E
ENCODING 110
SWIDTH 762 0
DWIDTH 18 0
BBX 15 11 2 0
BITMAP
FFF8
FFF8
F01E
F01E
F01E
F01E
F01E
F01E
F01E
F01E
F01E
ENDCHAR
STARTCHAR 006F
ENCODING 111
SWIDTH 762 0
DWIDTH 18 0
BBX 15 11 2 0
BITMAP
3FF8
3FF8
F01E
F01E
F01E
F01E
F01E
F01E
F01E
3FF8
3FF8
ENDCHAR
STARTCHAR 0070
ENCODING 112
SWIDTH 762 0
DWIDTH 18 0
BBX 15 18 2 -7
BITMAP
FFF8
FFF8
F01E
F01E
F01E
F01E
F01E
F01E
F01E
FFF8
FFF8
F000
F000
F000
F000
F000
F000
F000
ENDCHAR
STARTCHAR 0071
ENCODING 113
SWIDTH 762 0
DWIDTH 18 0
BBX 15 18 2 -7
BITMAP
3FFE
3FFE
F01E
F01E
F01E
F01E
F01E
F01E
F01E
3FFE
3FFE
001E
001E
001E
001E
001E
001E
001E
ENDCHAR
STARTCHAR 0072
ENCODING 114
SWIDTH 677 0
DWIDTH 16 0
BBX 13 11 2 0
BITMAP
F1F8
F1F8
FE00
FE00
F000
F000
F000
F000
F000
F000
F000
ENDCHAR
STARTCHAR 0073
ENCODING 115
SWIDTH 762 0
DWIDTH 18 0
BBX 15 11 2 0
BITMAP
3FF8
3FF8
F000
F000
3000
3FF8
3FF8
001E
001E
FFF8
FFF8
ENDCHAR
STARTCHAR 0074
ENCODING 116
SWIDTH 592 0
DWIDTH 14 0
BBX 11 18 2 0
BITMAP
3C00
3C00
3C00
3C00
3C00
3C00
3C00
FFE0
FFE0
3C00
3C00
3C00
3C00
3C00
3C00
0400
07E0
07E0
ENDCHAR
STARTCHAR 0075
ENCODING 117
SWIDTH 762 0
DWIDTH 18 0
BBX 15 11 2 0
BITMAP
F01E
F01E
F01E
F01E
F01E
F01E
F01E
F01E
F01E
3FF8
3FF8
ENDCHAR
STARTCHAR 0076
ENCODING 118
SWIDTH 762 0
DWIDTH 18 0
BBX 15 11 2 0
BITMAP
F01E
F01E
F01E
F01E
F01E
F01E
F01E
3C78
3C78
07E0
07E0
ENDCHAR
STARTCHAR 0077
ENCODING 119
SWIDTH 762 0
DWIDTH 18 0
BBX 15 11 2 0
BITMAP
F19E
F19E
F19E
F19E
F19E
F19E
F19E
F19E
F19E
3C78
3C78
ENDCHAR
STARTCHAR 0078
ENCODING 120
SWIDTH 762 0
DWIDTH 18 0
BBX 15 11 2 0
BITMAP
F01E
F01E
3C78
3FF8
07E0
07E0
3FF8
3C78
3C78
F01E
F01E
ENDCHAR
STARTCHAR 0079
ENCODING 121
SWIDTH 762 0
DWIDTH 18 0
BBX 15 18 2 -7
BITMAP
F01E
F01E
F01E
F01E
F01E
F01E
F01E
F01E
F01E
3FFE
3FFE
001E
001E
001E
001E
0018
3FF8
3FF8
ENDCHAR
STARTCHAR 007A
ENCODING 122
SWIDTH 762 0
DWIDTH 18 0
BBX 15 11 2 0
BITMAP
FFFE
FFFE
01F8
01F8
07E0
07E0
07E0
3F00
3F00
FFFE
FFFE
ENDCHAR
STARTCHAR 007B
ENCODING 123
SWIDTH 465 0
DWIDTH 11 0
BBX 8 18 2 0
BITMAP
0F
0F
0C
3C
3C
3C
3C
3C
F0
F0
3C
3C
3C
3C
3C
3C
0F
0F
ENDCHAR
STARTCHAR 007C
ENCODING 124
SWIDTH 296 0
DWIDTH 7 0
BBX 4 22 2 -4
BITMAP
F0
F0
F0
F0
F0
F0
F0
F0
F0
F0
F0
F0
F0
F0
F0
F0
F0
F0
F0
F0
F0
F0
ENDCHAR
STARTCHAR 007D
ENCODING 125
SWIDTH 465 0
DWIDTH 11 0
BBX 8 18 2 0
BITMAP
F0
F0
30
3C
3C
3C
3C
3C
0F
0F
3C
3C
3C
3C
3C
3C
F0
F0
ENDCHAR
STARTCHAR 007E
ENCODING 126
SWIDTH 677 0
DWIDTH 16 0
BBX 13 6 2 7
BITMAP
3C00
3C00
CF18
CF18
01E0
01E0
ENDCHAR
STARTCHAR 00A1
ENCODING 161
SWIDTH 296 0
DWIDTH 7 0
BBX 4 18 2 0
BITMAP
F0
F0
F0
F0
00
00
00
F0
F0
F0
F0
F0
F0
F0
F0
F0
F0
F0
ENDCHAR
STARTCHAR 00A2
ENCODING 162
SWIDTH 762 0
DWIDTH 18 0
BBX 15 15 2 -2
BITMAP
0180
0180
3FF8
3FF8
F19E
F19E
F180
F180
F180
F19E
F19E
3FF8
3FF8
0180
0180
ENDCHAR
STARTCHAR 00A3
ENCODING 163
SWIDTH 762 0
DWIDTH 18 0
BBX 15 18 2 0
BITMAP
0FF8
0FF8
0C18
3C1E
3C1E
3C00
3C00
FFF8
FFF8
3C00
3C00
3C00
3C00
3C00
3C00
3C00
FFFE
FFFE
ENDCHAR
STARTCHAR 00A4
ENCODING 164
SWIDTH 720 0
DWIDTH 17 0
BBX 14 11 2 3
BITMAP
CF8C
CF8C
3030
3030
3030
3030
3030
3030
3030
CF8C
CF8C
ENDCHAR
STARTCHAR 00A5
ENCODING 165
SWIDTH 720 0
DWIDTH 17 0
BBX 14 18 2 0
BITMAP
F01C
F01C
F01C
F01C
F01C
F01C
F01C
3C78
3C78
07E0
FFFC
FFFC
03C0
03C0
FFFC
FFFC
03C0
03C0
ENDCHAR
STARTCHAR 00A6
ENCODING 166
SWIDTH 254 0
DWIDTH 6 0
BBX 3 29 2 -7
BITMAP
E0
E0
E0
E0
E0
E0
E0
E0
E0
E0
E0
E0
00
00
00
00
00
E0
E0
E0
E0
E0
E0
E0
E0
E0
E0
E0
E0
ENDCHAR
STARTCHAR 00A7
ENCODING 167
SWIDTH 762 0
DWIDTH 18 0
BBX 15 18 2 0
BITMAP
3FF8
3FF8
3018
F01E
F01E
F000
FFE0
FFE0
3018
3018
0FF8
0FF8
001E
001E
F01E
F01E
3FF8
3FF8
ENDCHAR
STARTCHAR 00A8
ENCODING 168
SWIDTH 592 0
DWIDTH 14 0
BBX 11 4 2 13
BITMAP
F1E0
F1E0
F1E0
F1E0
ENDCHAR
STARTCHAR 00A9
ENCODING 169
SWIDTH 931 0
DWIDTH 22 0
BBX 19 17 2 0
BITMAP
3FFF80
3FFF80
F001E0
F001E0
F0FDE0
F0FDE0
F3C1E0
F3C1E0
F3C1E0
F3C1E0
F0C1E0
F0FDE0
F0FDE0
F001E0
F001E0
3FFF80
3FFF80
ENDCHAR
STARTCHAR 00AA
ENCODING 170
SWIDTH 508 0
DWIDTH 12 0
BBX 9 12 2 5
BITMAP
3C00
3C00
0180
0180
0180
3F80
3F80
C180
C180
C180
3F80
3F80
ENDCHAR
STARTCHAR 00AB
ENCODING 171
SWIDTH 931 0
DWIDTH 22 0
BBX 19 15 2 0
BITMAP
01E1E0
01E1E0
0F0780
0F0780
3C1E00
3C1E00
F07800
F07800
301800
3C1E00
3C1E00
0F0780
0F0780
01E1E0
01E1E0
ENDCHAR
STARTCHAR 00AE
ENCODING 174
SWIDTH 677 0
DWIDTH 16 0
BBX 13 13 2 4
BITMAP
3FE0
3FE0
C018
DFD8
DFD8
D8D8
DFD8
DF98
D998
D9D8
C018
3FE0
3FE0
ENDCHAR
STARTCHAR 00B1
ENCODING 177
SWIDTH 677 0
DWIDTH 16 0
BBX 13 15 2 1
BITMAP
0F00
0F00
0F00
0F00
FFF8
FFF8
0F00
0F00
0F00
0F00
0F00
0000
0000
FFF8
FFF8
ENDCHAR
STARTCHAR 00B5
ENCODING 181
SWIDTH 762 0
DWIDTH 18 0
BBX 16 18 1 -7
BITMAP
F007
F007
F007
F007
F007
F007
F007
FE3F
FE3F
F1E7
F1E7
F000
F000
F000
F000
F000
F000
F000
ENDCHAR
STARTCHAR 00B6
ENCODING 182
SWIDTH 762 0
DWIDTH 18 0
BBX 14 18 3 0
BITMAP
3FFC
3FFC
3FCC
FFCC
FFCC
FFCC
FFCC
3FCC
3FCC
00CC
00CC
00CC
00CC
00CC
00CC
00CC
00CC
00FC
ENDCHAR
STARTCHAR 00BB
ENCODING 187
SWIDTH 931 0
DWIDTH 22 0
BBX 19 15 2 0
BITMAP
F07800
F07800
3C1E00
3C1E00
0F0780
0F0780
01E1E0
01E1E0
010180
0F0780
0F0780
3C1E00
3C1E00
F07800
F07800
ENDCHAR
STARTCHAR 00BF
ENCODING 191
SWIDTH 762 0
DWIDTH 18 0
BBX 15 18 2 0
BITMAP
01E0
01E0
01E0
01E0
0000
0000
0000
01E0
01E0
3F00
3F00
3000
F000
F000
F01E
F01E
3FF8
3FF8
ENDCHAR
STARTCHAR 00C0
ENCODING 192
SWIDTH 762 0
DWIDTH 18 0
BBX 15 24 2 0
BITMAP
1E00
1E00
03C0
03C0
0000
0000
07E0
07E0
3C78
3C78
3C78
F01E
F01E
F01E
F01E
FFFE
FFFE
F01E
F01E
F01E
F01E
F01E
F01E
F01E
ENDCHAR
STARTCHAR 00C1
ENCODING 193
SWIDTH 762 0
DWIDTH 18 0
BBX 15 24 2 0
BITMAP
00F0
00F0
03C0
03C0
0000
0000
07E0
07E0
3C78
3C78
3C78
F01E
F01E
F01E
F01E
FFFE
FFFE
F01E
F01E
F01E
F01E
F01E
F01E
F01E
ENDCHAR
STARTCHAR 00C2
ENCODING 194
SWIDTH 762 0
DWIDTH 18 0
BBX 15 24 2 0
BITMAP
07E0
07E0
3C78
3C78
0000
0000
07E0
07E0
3C78
3C78
3C78
F01E
F01E
F01E
F01E
FFFE
FFFE
F01E
F01E
F01E
F01E
F01E
F01E
F01E
ENDCHAR
STARTCHAR 00C3
ENCODING 195
SWIDTH 762 0
DWIDTH 18 0
BBX 15 24 2 0
BITMAP
0630
0630
18C0
18C0
0000
0000
07E0
07E0
3C78
3C78
3C78
F01E
F01E
F01E
F01E
FFFE
FFFE
F01E
F01E
F01E
F01E
F01E
F01E
F01E
ENDCHAR
STARTCHAR 00C4
ENCODING 196
SWIDTH 762 0
DWIDTH 18 0
BBX 15 24 2 0
BITMAP
3C78
3C78
3C78
3C78
0000
0000
07E0
07E0
3C78
3C78
3C78
F01E
F01E
F01E
F01E
FFFE
FFFE
F01E
F01E
F01E
F01E
F01E
F01E
F01E
ENDCHAR
STARTCHAR 00C5
ENCODING 197
SWIDTH 804 0
DWIDTH 19 0
BBX 16 24 2 0
BITMAP
0180
0180
0C70
0C70
0180
0180
0FF0
0FF0
3C78
3C78
3008
F00F
F00F
F00F
F00F
FFFF
FFFF
F00F
F00F
F00F
F00F
F00F
F00F
F00F
ENDCHAR
STARTCHAR 00C6
ENCODING 198
SWIDTH 1016 0
DWIDTH 24 0
BBX 21 18 2 0
BITMAP
0FFFF8
0FFFF8
3C7800
3C7800
3C7800
F07800
F07800
F07FE0
F07FE0
FFF800
FFF800
F07800
F07800
F07800
F07800
F07800
F07FF8
F07FF8
ENDCHAR
STARTCHAR 00C7
ENCODING 199
SWIDTH 762 0
DWIDTH 18 0
BBX 15 22 2 -4
BITMAP
07F8
07F8
0418
3C1E
3C1E
F000
F000
F000
F000
F000
F000
F000
F000
F000
3C1E
3C1E
07F8
07F8
0078
0078
07E0
07E0
ENDCHAR
STARTCHAR 00C8
ENCODING 200
SWIDTH 762 0
DWIDTH 18 0
BBX 15 24 2 0
BITMAP
1E00
1E00
03C0
03C0
0000
0000
FFFE
FFFE
F000
F000
F000
F000
F000
FFE0
FFE0
F000
F000
F000
F000
F000
F000
F000
FFFE
FFFE
ENDCHAR
STARTCHAR 00C9
ENCODING 201
SWIDTH 762 0
DWIDTH 18 0
BBX 15 24 2 0
BITMAP
00F0
00F0
03C0
03C0
0000
0000
FFFE
FFFE
F000
F000
F000
F000
F000
FFE0
FFE0
F000
F000
F000
F000
F000
F000
F000
FFFE
FFFE
ENDCHAR
STARTCHAR 00CA
ENCODING 202
SWIDTH 762 0
DWIDTH 18 0
BBX 15 24 2 0
BITMAP
07E0
07E0
3C78
3C78
0000
0000
FFFE
FFFE
F000
F000
F000
F000
F000
FFE0
FFE0
F000
F000
F000
F000
F000
F000
F000
FFFE
FFFE
ENDCHAR
STARTCHAR 00CB
ENCODING 203
SWIDTH 762 0
DWIDTH 18 0
BBX 15 24 2 0
BITMAP
3C78
3C78
3C78
3C78
0000
0000
FFFE
FFFE
F000
F000
F000
F000
F000
FFE0
FFE0
F000
F000
F000
F000
F000
F000
F000
FFFE
FFFE
ENDCHAR
STARTCHAR 00CC
ENCODING 204
SWIDTH 677 0
DWIDTH 16 0
BBX 13 24 2 0
BITMAP
3C00
3C00
0F00
0F00
0000
0000
FFF8
FFF8
0F00
0F00
0F00
0F00
0F00
0F00
0F00
0F00
0F00
0F00
0F00
0F00
0F00
0F00
FFF8
FFF8
ENDCHAR
STARTCHAR 00CD
ENCODING 205
SWIDTH 677 0
DWIDTH 16 0
BBX 13 24 2 0
BITMAP
01E0
01E0
0F00
0F00
0000
0000
FFF8
FFF8
0F00
0F00
0F00
0F00
0F00
0F00
0F00
0F00
0F00
0F00
0F00
0F00
0F00
0F00
FFF8
FFF8
ENDCHAR
STARTCHAR 00CE
ENCODING 206
SWIDTH 677 0
DWIDTH 16 0
BBX 13 24 2 0
BITMAP
1F80
1F80
78F0
78F0
0000
0000
FFF8
FFF8
0F00
0F00
0F00
0F00
0F00
0F00
0F00
0F00
0F00
0F00
0F00
0F00
0F00
0F00
FFF8
FFF8
ENDCHAR
STARTCHAR 00CF
ENCODING 207
SWIDTH 677 0
DWIDTH 16 0
BBX 13 24 2 0
BITMAP
78F0
78F0
78F0
78F0
0000
0000
FFF8
FFF8
0F00
0F00
0F00
0F00
0F00
0F00
0F00
0F00
0F00
0F00
0F00
0F00
0F00
0F00
FFF8
FFF8
ENDCHAR
STARTCHAR 00D0
ENCODING 208
SWIDTH 847 0
DWIDTH 20 0
BBX 17 18 2 0
BITMAP
3FF800
3FF800
3C1800
3C1E00
3C1E00
3C0780
3C0780
3C0780
FFE780
FFE780
3C0780
3C0780
3C0780
3C0780
3C0E00
3C0E00
3FF800
3FF800
ENDCHAR
STARTCHAR 00D1
ENCODING 209
SWIDTH 762 0
DWIDTH 18 0
BBX 15 24 2 0
BITMAP
0630
0630
18C0
18C0
0000
0000
C01E
C01E
C01E
F01E
F01E
FC1E
FC1E
FF9E
FF9E
F3FE
F3FE
F07E
F07E
F01E
F01E
F006
F006
F006
ENDCHAR
STARTCHAR 00D2
ENCODING 210
SWIDTH 762 0
DWIDTH 18 0
BBX 15 24 2 0
BITMAP
1E00
1E00
03C0
03C0
0000
0000
3FF8
3FF8
3018
F01E
F01E
F01E
F01E
F01E
F01E
F01E
F01E
F01E
F01E
F01E
F01E
F01E
3FF8
3FF8
ENDCHAR
STARTCHAR 00D3
ENCODING 211
SWIDTH 762 0
DWIDTH 18 0
BBX 15 24 2 0
BITMAP
00F0
00F0
03C0
03C0
0000
0000
3FF8
3FF8
3018
F01E
F01E
F01E
F01E
F01E
F01E
F01E
F01E
F01E
F01E
F01E
F01E
F01E
3FF8
3FF8
ENDCHAR
STARTCHAR 00D4
ENCODING 212
SWIDTH 762 0
DWIDTH 18 0
BBX 15 24 2 0
BITMAP
07E0
07E0
3C78
3C78
0000
0000
3FF8
3FF8
3018
F01E
F01E
F01E
F01E
F01E
F01E
F01E
F01E
F01E
F01E
F01E
F01E
F01E
3FF8
3FF8
ENDCHAR
STARTCHAR 00D5
ENCODING 213
SWIDTH 762 0
DWIDTH 18 0
BBX 15 24 2 0
BITMAP
0630
0630
18C0
18C0
0000
0000
3FF8
3FF8
3018
F01E
F01E
F01E
F01E
F01E
F01E
F01E
F01E
F01E
F01E
F01E
F01E
F01E
3FF8
3FF8
ENDCHAR
STARTCHAR 00D6
ENCODING 214
SWIDTH 762 0
DWIDTH 18 0
BBX 15 24 2 0
BITMAP
3C78
3C78
3C78
3C78
0000
0000
3FF8
3FF8
3018
F01E
F01E
F01E
F01E
F01E
F01E
F01E
F01E
F01E
F01E
F01E
F01E
F01E
3FF8
3FF8
ENDCHAR
STARTCHAR 00D7
ENCODING 215
SWIDTH 592 0
DWIDTH 14 0
BBX 11 11 2 4
BITMAP
C060
C060
3180
3180
0C00
0C00
3180
3180
0000
C060
C060
ENDCHAR
STARTCHAR 00D8
ENCODING 216
SWIDTH 762 0
DWIDTH 18 0
BBX 15 18 2 0
BITMAP
3FE6
3FE6
3000
F018
F01E
F07E
F07E
F19E
F19E
F19E
F19E
F01E
FE1E
FE1E
301E
301E
C7E0
C7E0
ENDCHAR
STARTCHAR 00D9
ENCODING 217
SWIDTH 762 0
DWIDTH 18 0
BBX 15 24 2 0
BITMAP
1E00
1E00
03C0
03C0
0000
0000
F01E
F01E
F01E
F01E
F01E
F01E
F01E
F01E
F01E
F01E
F01E
F01E
F01E
F01E
F01E
3018
3FF8
3FF8
ENDCHAR
STARTCHAR 00DA
ENCODING 218
SWIDTH 762 0
DWIDTH 18 0
BBX 15 24 2 0
BITMAP
00F0
00F0
03C0
03C0
0000
0000
F01E
F01E
F01E
F01E
F01E
F01E
F01E
F01E
F01E
F01E
F01E
F01E
F01E
F01E
F01E
3018
3FF8
3FF8
ENDCHAR
STARTCHAR 00DB
ENCODING 219
SWIDTH 762 0
DWIDTH 18 0
BBX 15 24 2 0
BITMAP
07E0
07E0
3C78
3C78
0000
0000
F01E
F01E
F01E
F01E
F01E
F01E
F01E
F01E
F01E
F01E
F01E
F01E
F01E
F01E
F01E
3018
3FF8
3FF8
ENDCHAR
STARTCHAR 00DC
ENCODING 220
SWIDTH 762 0
DWIDTH 18 0
BBX 15 24 2 0
BITMAP
3C78
3C78
3C78
3C78
0000
0000
F01E
F01E
F01E
F01E
F01E
F01E
F01E
F01E
F01E
F01E
F01E
F01E
F01E
F01E
F01E
3018
3FF8
3FF8
ENDCHAR
STARTCHAR 00DD
ENCODING 221
SWIDTH 762 0
DWIDTH 18 0
BBX 15 24 2 0
BITMAP
00F0
00F0
03C0
03C0
0000
0000
F01E
F01E
F01E
F01E
F01E
F01E
F01E
3C78
3C78
07E0
07E0
03C0
03C0
03C0
03C0
03C0
03C0
03C0
ENDCHAR
STARTCHAR 00DE
ENCODING 222
SWIDTH 762 0
DWIDTH 18 0
BBX 15 18 2 0
BITMAP
F000
F000
F000
FFF8
FFF8
F01E
F01E
F01E
F01E
F01E
F01E
F01E
F01E
F01E
FFF8
FFF8
F000
F000
ENDCHAR
STARTCHAR 00DF
ENCODING 223
SWIDTH 762 0
DWIDTH 18 0
BBX 15 18 2 0
BITMAP
FFE0
FFE0
F060
F078
F078
F078
F078
F1E0
F1E0
F1E0
F1E0
F078
F078
F078
F71E
F71E
F1F8
F1F8
ENDCHAR
STARTCHAR 00E0
ENCODING 224
SWIDTH 762 0
DWIDTH 18 0
BBX 15 18 2 0
BITMAP
1E00
1E00
0200
03C0
03C0
0000
0000
3FF8
3FF8
001E
001E
001E
3FFE
3FFE
F01E
F01E
3FFE
3FFE
ENDCHAR
STARTCHAR 00E1
ENCODING 225
SWIDTH 762 0
DWIDTH 18 0
BBX 15 18 2 0
BITMAP
00F0
00F0
00C0
03C0
03C0
0000
0000
3FF8
3FF8
001E
001E
001E
3FFE
3FFE
F01E
F01E
3FFE
3FFE
ENDCHAR
STARTCHAR 00E2
ENCODING 226
SWIDTH 762 0
DWIDTH 18 0
BBX 15 18 2 0
BITMAP
07E0
07E0
0460
3C78
3C78
0000
0000
3FF8
3FF8
001E
001E
001E
3FFE
3FFE
F01E
F01E
3FFE
3FFE
ENDCHAR
STARTCHAR 00E3
ENCODING 227
SWIDTH 762 0
DWIDTH 18 0
BBX 15 18 2 0
BITMAP
0630
0630
0000
18C0
18C0
0000
0000
3FF8
3FF8
001E
001E
001E
3FFE
3FFE
F01E
F01E
3FFE
3FFE
ENDCHAR
STARTCHAR 00E4
ENCODING 228
SWIDTH 762 0
DWIDTH 18 0
BBX 15 18 2 0
BITMAP
3C78
3C78
3C78
3C78
0000
0000
0000
3FF8
3FF8
001E
001E
001E
3FFE
3FFE
F01E
F01E
3FFE
3FFE
ENDCHAR
STARTCHAR 00E5
ENCODING 229
SWIDTH 804 0
DWIDTH 19 0
BBX 16 18 2 0
BITMAP
0180
0180
0000
0C70
0C70
0180
0180
3FF8
3FF8
000F
000F
000F
3FFF
3FFF
F00F
F00F
3FFF
3FFF
ENDCHAR
STARTCHAR 00E6
ENCODING 230
SWIDTH 1312 0
DWIDTH 31 0
BBX 28 11 2 0
BITMAP
3FF9FFC0
3FF9FFC0
001F80F0
001F80F0
001F80F0
3FFFFFF0
3FFFFFF0
F01F8000
F01F8000
3FF9FFC0
3FF9FFC0
ENDCHAR
STARTCHAR 00E7
ENCODING 231
SWIDTH 762 0
DWIDTH 18 0
BBX 15 15 2 -4
BITMAP
3FF8
3FF8
F01E
F01E
F000
F000
F000
F01E
F01E
3FF8
3FF8
0078
0078
07E0
07E0
ENDCHAR
STARTCHAR 00E8
ENCODING 232
SWIDTH 762 0
DWIDTH 18 0
BBX 15 18 2 0
BITMAP
1E00
1E00
0200
03C0
03C0
0000
0000
3FF8
3FF8
F01E
F01E
F01E
FFFE
FFFE
F000
F000
3FF8
3FF8
ENDCHAR
STARTCHAR 00E9
ENCODING 233
SWIDTH 762 0
DWIDTH 18 0
BBX 15 18 2 0
BITMAP
00F0
00F0
00C0
03C0
03C0
0000
0000
3FF8
3FF8
F01E
F01E
F01E
FFFE
FFFE
F000
F000
3FF8
3FF8
ENDCHAR
STARTCHAR 00EA
ENCODING 234
SWIDTH 762 0
DWIDTH 18 0
BBX 15 18 2 0
BITMAP
07E0
07E0
0460
3C78
3C78
0000
0000
3FF8
3FF8
F01E
F01E
F01E
FFFE
FFFE
F000
F000
3FF8
3FF8
ENDCHAR
STARTCHAR 00EB
ENCODING 235
SWIDTH 762 0
DWIDTH 18 0
BBX 15 18 2 0
BITMAP
3C78
3C78
3C78
3C78
0000
0000
0000
3FF8
3FF8
F01E
F01E
F01E
FFFE
FFFE
F000
F000
3FF8
3FF8
ENDCHAR
STARTCHAR 00EC
ENCODING 236
SWIDTH 296 0
DWIDTH 7 0
BBX 6 18 0 0
BITMAP
F0
F0
30
3C
3C
00
00
3C
3C
3C
3C
3C
3C
3C
3C
3C
3C
3C
ENDCHAR
STARTCHAR 00ED
ENCODING 237
SWIDTH 381 0
DWIDTH 9 0
BBX 6 18 2 0
BITMAP
3C
3C
30
F0
F0
00
00
F0
F0
F0
F0
F0
F0
F0
F0
F0
F0
F0
ENDCHAR
STARTCHAR 00EE
ENCODING 238
SWIDTH 465 0
DWIDTH 11 0
BBX 11 18 -1 0
BITMAP
3F00
3F00
3100
F1E0
F1E0
0000
0000
1E00
1E00
1E00
1E00
1E00
1E00
1E00
1E00
1E00
1E00
1E00
ENDCHAR
STARTCHAR 00EF
ENCODING 239
SWIDTH 465 0
DWIDTH 11 0
BBX 11 18 -1 0
BITMAP
F1E0
F1E0
F1E0
F1E0
0000
0000
0000
1E00
1E00
1E00
1E00
1E00
1E00
1E00
1E00
1E00
1E00
1E00
ENDCHAR
STARTCHAR 00F0
ENCODING 240
SWIDTH 847 0
DWIDTH 20 0
BBX 17 18 2 0
BITMAP
001E00
001E00
001E00
03FF80
03FF80
001E00
001E00
3FFE00
FFFE00
F01E00
F01E00
F01E00
F01E00
F01E00
F01E00
301800
3FF800
3FF800
ENDCHAR
STARTCHAR 00F1
ENCODING 241
SWIDTH 762 0
DWIDTH 18 0
BBX 15 18 2 0
BITMAP
0630
0630
0000
18C0
18C0
0000
0000
FFF8
FFF8
F01E
F01E
F01E
F01E
F01E
F01E
F01E
F01E
F01E
ENDCHAR
STARTCHAR 00F2
ENCODING 242
SWIDTH 762 0
DWIDTH 18 0
BBX 15 18 2 0
BITMAP
1E00
1E00
0200
03C0
03C0
0000
0000
3FF8
3FF8
F01E
F01E
F01E
F01E
F01E
F01E
F01E
3FF8
3FF8
ENDCHAR
STARTCHAR 00F3
ENCODING 243
SWIDTH 762 0
DWIDTH 18 0
BBX 15 18 2 0
BITMAP
00F0
00F0
00C0
03C0
03C0
0000
0000
3FF8
3FF8
F01E
F01E
F01E
F01E
F01E
F01E
F01E
3FF8
3FF8
ENDCHAR
STARTCHAR 00F4
ENCODING 244
SWIDTH 762 0
DWIDTH 18 0
BBX 15 18 2 0
BITMAP
07E0
07E0
0460
3C78
3C78
0000
0000
3FF8
3FF8
F01E
F01E
F01E
F01E
F01E
F01E
F01E
3FF8
3FF8
ENDCHAR
STARTCHAR 00F5
ENCODING 245
SWIDTH 762 0
DWIDTH 18 0
BBX 15 18 2 0
BITMAP
0630
0630
0000
18C0
18C0
0000
0000
3FF8
3FF8
F01E
F01E
F01E
F01E
F01E
F01E
F01E
3FF8
3FF8
ENDCHAR
STARTCHAR 00F6
ENCODING 246
SWIDTH 762 0
DWIDTH 18 0
BBX 15 18 2 0
BITMAP
3C78
3C78
3C78
3C78
0000
0000
0000
3FF8
3FF8
F01E
F01E
F01E
F01E
F01E
F01E
F01E
3FF8
3FF8
ENDCHAR
STARTCHAR 00F7
ENCODING 247
SWIDTH 677 0
DWIDTH 16 0
BBX 13 11 2 2
BITMAP
0F00
0F00
0000
0000
0000
FFF8
FFF8
0000
0000
0F00
0F00
ENDCHAR
STARTCHAR 00F8
ENCODING 248
SWIDTH 762 0
DWIDTH 18 0
BBX 15 11 2 0
BITMAP
3FEE
3FFE
F07C
F0F8
F0F8
F11E
3E1E
3E1E
7C1E
FFF8
CFF8
ENDCHAR
STARTCHAR 00F9
ENCODING 249
SWIDTH 762 0
DWIDTH 18 0
BBX 15 18 2 0
BITMAP
1E00
1E00
0200
03C0
03C0
0000
0000
F01E
F01E
F01E
F01E
F01E
F01E
F01E
F01E
F01E
3FFE
3FFE
ENDCHAR
STARTCHAR 00FA
ENCODING 250
SWIDTH 762 0
DWIDTH 18 0
BBX 15 18 2 0
BITMAP
00F0
00F0
00C0
03C0
03C0
0000
0000
F01E
F01E
F01E
F01E
F01E
F01E
F01E
F01E
F01E
3FFE
3FFE
ENDCHAR
STARTCHAR 00FB
ENCODING 251
SWIDTH 762 0
DWIDTH 18 0
BBX 15 18 2 0
BITMAP
07E0
07E0
0460
3C78
3C78
0000
0000
F01E
F01E
F01E
F01E
F01E
F01E
F01E
F01E
F01E
3FFE
3FFE
ENDCHAR
STARTCHAR 00FC
ENCODING 252
SWIDTH 762 0
DWIDTH 18 0
BBX 15 18 2 0
BITMAP
3C78
3C78
3C78
3C78
0000
0000
0000
F01E
F01E
F01E
F01E
F01E
F01E
F01E
F01E
F01E
3FFE
3FFE
ENDCHAR
STARTCHAR 00FD
ENCODING 253
SWIDTH 762 0
DWIDTH 18 0
BBX 15 25 2 -7
BITMAP
00F0
00F0
00C0
03C0
03C0
0000
0000
F01E
F01E
F01E
F01E
F01E
F01E
F01E
F01E
F01E
3FFE
3FFE
001E
001E
001E
001E
0018
3FF8
3FF8
ENDCHAR
STARTCHAR 00FE
ENCODING 254
SWIDTH 762 0
DWIDTH 18 0
BBX 15 25 2 -7
BITMAP
F000
F000
F000
F000
F000
F000
F000
FFF8
FFF8
F01E
F01E
F01E
F01E
F01E
F01E
F01E
FFF8
FFF8
F000
F000
F000
F000
F000
F000
F000
ENDCHAR
STARTCHAR 00FF
ENCODING 255
SWIDTH 762 0
DWIDTH 18 0
BBX 15 25 2 -7
BITMAP
3C78
3C78
3C78
3C78
0000
0000
0000
F01E
F01E
F01E
F01E
F01E
F01E
F01E
F01E
F01E
3FFE
3FFE
001E
001E
001E
001E
0018
3FF8
3FF8
ENDCHAR
STARTCHAR 0178
ENCODING 376
SWIDTH 720 0
DWIDTH 17 0
BBX 14 24 2 0
BITMAP
3C78
3C78
3C78
3C78
0000
0000
F01C
F01C
F01C
F01C
F01C
F01C
F01C
3C78
3C78
07E0
07E0
03C0
03C0
03C0
03C0
03C0
03C0
03C0
ENDCHAR
STARTCHAR 0391
ENCODING 913
SWIDTH 762 0
DWIDTH 18 0
BBX 15 18 2 0
BITMAP
07E0
07E0
3C78
3C78
3C78
F01E
F01E
F01E
F01E
FFFE
FFFE
F01E
F01E
F01E
F01E
F01E
F01E
F01E
ENDCHAR
STARTCHAR 0392
ENCODING 914
SWIDTH 762 0
DWIDTH 18 0
BBX 15 18 2 0
BITMAP
FFF8
FFF8
F018
F01E
F01E
F01E
F01E
FFF8
FFF8
F01E
F01E
F01E
F01E
F01E
F01E
F01E
FFF8
FFF8
ENDCHAR
STARTCHAR 0393
ENCODING 915
SWIDTH 677 0
DWIDTH 16 0
BBX 13 18 2 0
BITMAP
FFF8
FFF8
F000
F000
F000
F000
F000
F000
F000
F000
F000
F000
F000
F000
F000
F000
F000
F000
ENDCHAR
STARTCHAR 0394
ENCODING 916
SWIDTH 1016 0
DWIDTH 24 0
BBX 21 18 2 0
BITMAP
007800
007800
01FE00
01CE00
01CE00
0F0780
0F0780
0F0780
0F0780
0F0780
3C01E0
3C01E0
3C01E0
3C01E0
3C01E0
FFFFF8
FFFFF8
FFFFF8
ENDCHAR
STARTCHAR 0395
ENCODING 917
SWIDTH 762 0
DWIDTH 18 0
BBX 15 18 2 0
BITMAP
FFFE
FFFE
F000
F000
F000
F000
F000
FFE0
FFE0
F000
F000
F000
F000
F000
F000
F000
FFFE
FFFE
ENDCHAR
STARTCHAR 0396
ENCODING 918
SWIDTH 804 0
DWIDTH 19 0
BBX 16 18 2 0
BITMAP
FFFF
FFFF
001F
001F
001F
0078
0078
01E0
01E0
0F00
0F00
3C00
3C00
F000
F000
F000
FFFF
FFFF
ENDCHAR
STARTCHAR 0397
ENCODING 919
SWIDTH 762 0
DWIDTH 18 0
BBX 15 18 2 0
BITMAP
F01E
F01E
F01E
F01E
F01E
F01E
F01E
FFFE
FFFE
F01E
F01E
F01E
F01E
F01E
F01E
F01E
F01E
F01E
ENDCHAR
STARTCHAR 0398
ENCODING 920
SWIDTH 762 0
DWIDTH 18 0
BBX 15 18 2 0
BITMAP
3FF8
3FF8
3018
F01E
F01E
F01E
F01E
F01E
F3DE
F3DE
F01E
F01E
F01E
F01E
F01E
F01E
3FF8
3FF8
ENDCHAR
STARTCHAR 0399
ENCODING 921
SWIDTH 677 0
DWIDTH 16 0
BBX 13 18 2 0
BITMAP
FFF8
FFF8
0F00
0F00
0F00
0F00
0F00
0F00
0F00
0F00
0F00
0F00
0F00
0F00
0F00
0F00
FFF8
FFF8
ENDCHAR
STARTCHAR 039A
ENCODING 922
SWIDTH 762 0
DWIDTH 18 0
BBX 15 18 2 0
BITMAP
F01E
F01E
F018
F078
F078
F1E0
F1E0
FF80
FF80
F1E0
F1E0
F078
F078
F018
F01E
F01E
F01E
F01E
ENDCHAR
STARTCHAR 039B
ENCODING 923
SWIDTH 1016 0
DWIDTH 24 0
BBX 21 18 2 0
BITMAP
007800
007800
01FE00
01CE00
01CE00
01CE00
0F0780
0F0780
0F0780
0F0780
3C01E0
3C01E0
3C01E0
3C01E0
3C01E0
F00078
F00078
F00078
ENDCHAR
STARTCHAR 039C
ENCODING 924
SWIDTH 762 0
DWIDTH 18 0
BBX 15 18 2 0
BITMAP
C006
C006
C006
F81E
F81E
FE7E
FE7E
FFFE
FFFE
F99E
F99E
F81E
F81E
F81E
F81E
F81E
F81E
F81E
ENDCHAR
STARTCHAR 039D
ENCODING 925
SWIDTH 762 0
DWIDTH 18 0
BBX 15 18 2 0
BITMAP
C01E
C01E
C01E
F01E
F01E
FC1E
FC1E
FF9E
FF9E
F3FE
F3FE
F07E
F07E
F01E
F01E
F006
F006
F006
ENDCHAR
STARTCHAR 039E
ENCODING 926
SWIDTH 762 0
DWIDTH 18 0
BBX 15 18 2 0
BITMAP
FFFE
FFFE
0000
0000
0000
0000
0000
0000
1FF0
1FF0
0000
0000
0000
0000
0000
0000
FFFE
FFFE
ENDCHAR
STARTCHAR 039F
ENCODING 927
SWIDTH 762 0
DWIDTH 18 0
BBX 15 18 2 0
BITMAP
3FF8
3FF8
3018
F01E
F01E
F01E
F01E
F01E
F01E
F01E
F01E
F01E
F01E
F01E
F01E
F01E
3FF8
3FF8
ENDCHAR
STARTCHAR 03A0
ENCODING 928
SWIDTH 931 0
DWIDTH 22 0
BBX 19 18 2 0
BITMAP
FFFFE0
FFFFE0
3C0780
3C0780
3C0780
3C0780
3C0780
3C0780
3C0780
3C0780
3C0780
3C0780
3C0780
3C0780
3C0780
3C0780
3C0780
3C0780
ENDCHAR
STARTCHAR 03A1
ENCODING 929
SWIDTH 762 0
DWIDTH 18 0
BBX 15 18 2 0
BITMAP
FFF8
FFF8
F018
F01E
F01E
F01E
F01E
FFF8
FFF8
F000
F000
F000
F000
F000
F000
F000
F000
F000
ENDCHAR
STARTCHAR 03A3
ENCODING 931
SWIDTH 762 0
DWIDTH 18 0
BBX 15 18 2 0
BITMAP
FFFE
FFFE
F000
F000
F000
F000
3C00
3C00
0F00
0F00
3C00
3C00
3000
F000
F000
F000
FFFE
FFFE
ENDCHAR
STARTCHAR 03A4
ENCODING 932
SWIDTH 762 0
DWIDTH 18 0
BBX 15 18 2 0
BITMAP
FFFE
FFFE
0F80
0F80
0F80
0F80
0F80
0F80
0F80
0F80
0F80
0F80
0F80
0F80
0F80
0F80
0F80
0F80
ENDCHAR
STARTCHAR 03A5
ENCODING 933
SWIDTH 931 0
DWIDTH 22 0
BBX 19 18 2 0
BITMAP
F001E0
F001E0
3C0780
3C0780
3C0780
3C0780
3C0780
0F1E00
0F1E00
01F800
01F800
00F000
00F000
00F000
00F000
00F000
00F000
00F000
ENDCHAR
STARTCHAR 03A6
ENCODING 934
SWIDTH 931 0
DWIDTH 22 0
BBX 19 18 2 0
BITMAP
00F000
00F000
00F000
3FFF80
3FFF80
F0F1E0
F0F1E0
F0F1E0
F0F1E0
F0F1E0
F0F1E0
F0F1E0
F0F1E0
F0F1E0
3FFF80
3FFF80
00F000
00F000
ENDCHAR
STARTCHAR 03A7
ENCODING 935
SWIDTH 762 0
DWIDTH 18 0
BBX 15 18 2 0
BITMAP
F01E
F01E
F01E
F01E
3018
3C78
3C78
07E0
07E0
3C78
3C78
F01E
F01E
F01E
F01E
F01E
F01E
F01E
ENDCHAR
STARTCHAR 03A8
ENCODING 936
SWIDTH 1101 0
DWIDTH 26 0
BBX 23 18 2 0
BITMAP
F03C1E
F03C1E
303C18
3C3C78
3C3C78
0F3DE0
0F3DE0
03FF80
03FF80
007E00
007E00
003C00
003C00
003C00
003C00
003C00
003C00
003C00
ENDCHAR
STARTCHAR 03A9
ENCODING 937
SWIDTH 1101 0
DWIDTH 26 0
BBX 23 18 2 0
BITMAP
0FFFE0
0FFFE0
0C0060
3C0078
3C0078
F0001E
F0001E
F0001E
F0001E
3C0078
3C0078
0F01E0
0F01E0
01E780
01E780
01E780
FFE7FE
FFE7FE
ENDCHAR
STARTCHAR 03B1
ENCODING 945
SWIDTH 762 0
DWIDTH 18 0
BBX 15 11 2 0
BITMAP
3F1E
3F1E
F3F8
F3F8
F078
F078
F078
F3F8
F3F8
3F1E
3F1E
ENDCHAR
STARTCHAR 03B2
ENCODING 946
SWIDTH 762 0
DWIDTH 18 0
BBX 15 25 2 -7
BITMAP
0FF8
0FF8
0C18
3C1E
3C1E
F01E
F01E
F01E
F01E
F1F8
F1F8
F01E
F01E
F01E
FC78
FC78
F1E0
F1E0
F000
F000
F000
F000
F000
F000
F000
ENDCHAR
STARTCHAR 0401
ENCODING 1025
SWIDTH 762 0
DWIDTH 18 0
BBX 15 24 2 0
BITMAP
3C78
3C78
3C78
3C78
0000
0000
FFFE
FFFE
F000
F000
F000
F000
F000
FFE0
FFE0
F000
F000
F000
F000
F000
F000
F000
FFFE
FFFE
ENDCHAR
STARTCHAR 0404
ENCODING 1028
SWIDTH 762 0
DWIDTH 18 0
BBX 15 18 2 0
BITMAP
0FF8
0FF8
0C18
3C1E
3C1E
F000
F000
F000
FFE0
FFE0
F000
F000
F000
F000
3C1E
3C1E
0FF8
0FF8
ENDCHAR
STARTCHAR 0406
ENCODING 1030
SWIDTH 677 0
DWIDTH 16 0
BBX 13 18 2 0
BITMAP
FFF8
FFF8
0F00
0F00
0F00
0F00
0F00
0F00
0F00
0F00
0F00
0F00
0F00
0F00
0F00
0F00
FFF8
FFF8
ENDCHAR
STARTCHAR 0407
ENCODING 1031
SWIDTH 720 0
DWIDTH 17 0
BBX 14 24 2 0
BITMAP
78F0
78F0
78F0
78F0
0000
0000
FFF8
FFF8
0F80
0F80
0F80
0F80
0F80
0F80
0F80
0F80
0F80
0F80
0F80
0F80
0F80
0F80
FFFC
FFFC
ENDCHAR
STARTCHAR 0409
ENCODING 1033
SWIDTH 1185 0
DWIDTH 28 0
BBX 25 18 2 0
BITMAP
0FFE0000
0FFE0000
3C1E0000
3C1E0000
3C1E0000
3C1E0000
3C1E0000
3C1FFE00
3C1FFE00
3C1E0780
3C1E0780
3C1E0780
3C1E0780
3C1E0780
3C1E0780
3C1E0780
F01FFE00
F01FFE00
ENDCHAR
STARTCHAR 040A
ENCODING 1034
SWIDTH 1101 0
DWIDTH 26 0
BBX 23 18 2 0
BITMAP
F01E00
F01E00
F01E00
F01E00
F01E00
F01E00
F01E00
FFFFF8
FFFFF8
F01E1E
F01E1E
F01E1E
F01E1E
F01E1E
F01E1E
F01E1E
F01FF8
F01FF8
ENDCHAR
STARTCHAR 0410
ENCODING 1040
SWIDTH 762 0
DWIDTH 18 0
BBX 15 18 2 0
BITMAP
07E0
07E0
3C78
3C78
3C78
F01E
F01E
F01E
FFFE
FFFE
F01E
F01E
F01E
F01E
F01E
F01E
F01E
F01E
ENDCHAR
STARTCHAR 0411
ENCODING 1041
SWIDTH 762 0
DWIDTH 18 0
BBX 15 18 2 0
BITMAP
FFF8
FFF8
F000
F000
F000
F000
F000
FFF8
FFF8
F01E
F01E
F01E
F01E
F01E
F01E
F01E
FFF8
FFF8
ENDCHAR
STARTCHAR 0412
ENCODING 1042
SWIDTH 762 0
DWIDTH 18 0
BBX 15 18 2 0
BITMAP
FFF8
FFF8
F018
F01E
F01E
F01E
F01E
FFF8
FFF8
F01E
F01E
F01E
F01E
F01E
F01E
F01E
FFF8
FFF8
ENDCHAR
STARTCHAR 0413
ENCODING 1043
SWIDTH 677 0
DWIDTH 16 0
BBX 13 18 2 0
BITMAP
FFF8
FFF8
F000
F000
F000
F000
F000
F000
F000
F000
F000
F000
F000
F000
F000
F000
F000
F000
ENDCHAR
STARTCHAR 0414
ENCODING 1044
SWIDTH 847 0
DWIDTH 20 0
BBX 17 22 2 -4
BITMAP
0FFE00
0FFE00
3C1E00
3C1E00
3C1E00
3C1E00
3C1E00
3C1E00
3C1E00
3C1E00
3C1E00
3C1E00
3C1E00
3C1E00
3C1E00
3C1E00
FFFF80
FFFF80
F00780
F00780
F00780
F00780
ENDCHAR
STARTCHAR 0415
ENCODING 1045
SWIDTH 762 0
DWIDTH 18 0
BBX 15 18 2 0
BITMAP
FFFE
FFFE
F000
F000
F000
F000
F000
FFE0
FFE0
F000
F000
F000
F000
F000
F000
F000
FFFE
FFFE
ENDCHAR
STARTCHAR 0416
ENCODING 1046
SWIDTH 847 0
DWIDTH 20 0
BBX 17 18 2 0
BITMAP
F1E780
F1E780
F1E780
F1E780
F1E780
F1E780
F1E780
3FFE00
3FFE00
F1E780
F1E780
F1E780
F1E780
F1E780
F1E780
F1E780
F1E780
F1E780
ENDCHAR
STARTCHAR 0417
ENCODING 1047
SWIDTH 762 0
DWIDTH 18 0
BBX 15 18 2 0
BITMAP
3FF8
3FF8
F01E
F01E
001E
001E
001E
001E
07F8
07F8
001E
001E
001E
001E
F01E
F01E
3FF8
3FF8
ENDCHAR
STARTCHAR 0418
ENCODING 1048
SWIDTH 762 0
DWIDTH 18 0
BBX 15 18 2 0
BITMAP
F006
F006
F006
F01E
F01E
F07E
F07E
F3FE
F3FE
FF9E
FF9E
FC1E
FC1E
F01E
F01E
C01E
C01E
C01E
ENDCHAR
STARTCHAR 0419
ENCODING 1049
SWIDTH 762 0
DWIDTH 18 0
BBX 15 24 2 0
BITMAP
783C
783C
1FF0
1FF0
0000
0000
F006
F006
F006
F01E
F01E
F07E
F07E
F3FE
F3FE
FF9E
FF9E
FC1E
FC1E
F01E
F01E
C01E
C01E
C01E
ENDCHAR
STARTCHAR 041A
ENCODING 1050
SWIDTH 762 0
DWIDTH 18 0
BBX 15 18 2 0
BITMAP
F01E
F01E
F018
F078
F078
F1E0
F1E0
FF80
FF80
F1E0
F1E0
F078
F078
F018
F01E
F01E
F01E
F01E
ENDCHAR
STARTCHAR 041B
ENCODING 1051
SWIDTH 762 0
DWIDTH 18 0
BBX 15 18 2 0
BITMAP
0FFE
0FFE
3C1E
3C1E
3C1E
3C1E
3C1E
3C1E
3C1E
3C1E
3C1E
3C1E
3C1E
3C1E
3C1E
3C1E
F01E
F01E
ENDCHAR
STARTCHAR 041C
ENCODING 1052
SWIDTH 762 0
DWIDTH 18 0
BBX 15 18 2 0
BITMAP
C006
C006
C006
F81E
F81E
FE7E
FE7E
FFFE
FFFE
F99E
F99E
F81E
F81E
F81E
F81E
F81E
F81E
F81E
ENDCHAR
STARTCHAR 041D
ENCODING 1053
SWIDTH 762 0
DWIDTH 18 0
BBX 15 18 2 0
BITMAP
F01E
F01E
F01E
F01E
F01E
F01E
F01E
FFFE
FFFE
F01E
F01E
F01E
F01E
F01E
F01E
F01E
F01E
F01E
ENDCHAR
STARTCHAR 041E
ENCODING 1054
SWIDTH 762 0
DWIDTH 18 0
BBX 15 18 2 0
BITMAP
3FF8
3FF8
3018
F01E
F01E
F01E
F01E
F01E
F01E
F01E
F01E
F01E
F01E
F01E
F01E
F01E
3FF8
3FF8
ENDCHAR
STARTCHAR 041F
ENCODING 1055
SWIDTH 762 0
DWIDTH 18 0
BBX 15 18 2 0
BITMAP
FFFE
FFFE
F01E
F01E
F01E
F01E
F01E
F01E
F01E
F01E
F01E
F01E
F01E
F01E
F01E
F01E
F01E
F01E
ENDCHAR
STARTCHAR 0420
ENCODING 1056
SWIDTH 762 0
DWIDTH 18 0
BBX 15 18 2 0
BITMAP
FFF8
FFF8
F018
F01E
F01E
F01E
F01E
FFF8
FFF8
F000
F000
F000
F000
F000
F000
F000
F000
F000
ENDCHAR
STARTCHAR 0421
ENCODING 1057
SWIDTH 762 0
DWIDTH 18 0
BBX 15 18 2 0
BITMAP
0FF8
0FF8
0C18
3C1E
3C1E
F000
F000
F000
F000
F000
F000
F000
F000
F000
3C1E
3C1E
0FF8
0FF8
ENDCHAR
STARTCHAR 0422
ENCODING 1058
SWIDTH 762 0
DWIDTH 18 0
BBX 15 18 2 0
BITMAP
FFFE
FFFE
03C0
03C0
03C0
03C0
03C0
03C0
03C0
03C0
03C0
03C0
03C0
03C0
03C0
03C0
03C0
03C0
ENDCHAR
STARTCHAR 0423
ENCODING 1059
SWIDTH 762 0
DWIDTH 18 0
BBX 15 18 2 0
BITMAP
F01E
F01E
F01E
F01E
F01E
F01E
F01E
F01E
3FFE
3FFE
001E
001E
001E
001E
F01E
F01E
3FF8
3FF8
ENDCHAR
STARTCHAR 0424
ENCODING 1060
SWIDTH 1016 0
DWIDTH 24 0
BBX 21 18 2 0
BITMAP
007800
007800
007800
3FFFE0
3FFFE0
F07878
F07878
F07878
F07878
F07878
F07878
F07878
F07878
F07878
3FFFE0
3FFFE0
007800
007800
ENDCHAR
STARTCHAR 0425
ENCODING 1061
SWIDTH 762 0
DWIDTH 18 0
BBX 15 18 2 0
BITMAP
F01E
F01E
F01E
F01E
3018
3C78
3C78
07E0
07E0
3C78
3C78
F01E
F01E
F01E
F01E
F01E
F01E
F01E
ENDCHAR
STARTCHAR 0426
ENCODING 1062
SWIDTH 847 0
DWIDTH 20 0
BBX 17 22 2 -4
BITMAP
F01E00
F01E00
F01E00
F01E00
F01E00
F01E00
F01E00
F01E00
F01E00
F01E00
F01E00
F01E00
F01E00
F01E00
F01E00
F01E00
FFFF80
FFFF80
000780
000780
000780
000780
ENDCHAR
STARTCHAR 0427
ENCODING 1063
SWIDTH 762 0
DWIDTH 18 0
BBX 15 18 2 0
BITMAP
F01E
F01E
F01E
F01E
F01E
F01E
F01E
F01E
3FFE
3FFE
001E
001E
001E
001E
001E
001E
001E
001E
ENDCHAR
STARTCHAR 0428
ENCODING 1064
SWIDTH 974 0
DWIDTH 23 0
BBX 20 18 2 0
BITMAP
F0F1F0
F0F1F0
F0F1F0
F0F1F0
F0F1F0
F0F1F0
F0F1F0
F0F1F0
F0F1F0
F0F1F0
F0F1F0
F0F1F0
F0F1F0
F0F1F0
F0F1F0
F0F1F0
FFFFF0
FFFFF0
ENDCHAR
STARTCHAR 0429
ENCODING 1065
SWIDTH 1016 0
DWIDTH 24 0
BBX 21 22 2 -4
BITMAP
F0F1E0
F0F1E0
F0F1E0
F0F1E0
F0F1E0
F0F1E0
F0F1E0
F0F1E0
F0F1E0
F0F1E0
F0F1E0
F0F1E0
F0F1E0
F0F1E0
F0F1E0
F0F1E0
FFFFF8
FFFFF8
000078
000078
000078
000078
ENDCHAR
STARTCHAR 042A
ENCODING 1066
SWIDTH 889 0
DWIDTH 21 0
BBX 18 18 2 0
BITMAP
FE0000
FE0000
1E0000
1E0000
1E0000
1E0000
1E0000
1FFF00
1FFF00
1E03C0
1E03C0
1E03C0
1E03C0
1E03C0
1E03C0
1E03C0
1FFF00
1FFF00
ENDCHAR
STARTCHAR 042B
ENCODING 1067
SWIDTH 1016 0
DWIDTH 24 0
BBX 21 18 2 0
BITMAP
F00078
F00078
F00078
F00078
F00078
F00078
F00078
FFF878
FFF878
F01E78
F01E78
F01E78
F01E78
F01E78
F01E78
F01E78
FFF878
FFF878
ENDCHAR
STARTCHAR 042C
ENCODING 1068
SWIDTH 762 0
DWIDTH 18 0
BBX 15 18 2 0
BITMAP
F000
F000
F000
F000
F000
F000
F000
FFF8
FFF8
F01E
F01E
F01E
F01E
F01E
F01E
F01E
FFF8
FFF8
ENDCHAR
STARTCHAR 042D
ENCODING 1069
SWIDTH 762 0
DWIDTH 18 0
BBX 15 18 2 0
BITMAP
3FE0
3FE0
3060
F078
F078
001E
001E
001E
0FFE
0FFE
001E
001E
001E
001E
F078
F078
3FE0
3FE0
ENDCHAR
STARTCHAR 042E
ENCODING 1070
SWIDTH 1058 0
DWIDTH 25 0
BBX 22 18 2 0
BITMAP
F83FF8
F83FF8
F83038
F8F03C
F8F03C
F8F03C
F8F03C
F8F03C
FFF03C
FFF03C
F8F03C
F8F03C
F8F03C
F8F03C
F8F03C
F8F03C
F83FF8
F83FF8
ENDCHAR
STARTCHAR 042F
ENCODING 1071
SWIDTH 762 0
DWIDTH 18 0
BBX 15 18 2 0
BITMAP
3FFE
3FFE
301E
F01E
F01E
F01E
F01E
3FFE
3FFE
F01E
F01E
F01E
F01E
F01E
F01E
F01E
F01E
F01E
ENDCHAR
STARTCHAR 0430
ENCODING 1072
SWIDTH 762 0
DWIDTH 18 0
BBX 15 11 2 0
BITMAP
3FF8
3FF8
001E
001E
001E
3FFE
3FFE
F01E
F01E
3FFE
3FFE
ENDCHAR
STARTCHAR 0431
ENCODING 1073
SWIDTH 762 0
DWIDTH 18 0
BBX 15 18 2 0
BITMAP
3FF8
3FF8
3000
F000
F000
F000
F000
F1F8
F1F8
FF9E
FF9E
F01E
F01E
F01E
F01E
F01E
3FF8
3FF8
ENDCHAR
STARTCHAR 0432
ENCODING 1074
SWIDTH 762 0
DWIDTH 18 0
BBX 15 11 2 0
BITMAP
FFF8
FFF8
F01E
F01E
F018
FFF8
FFF8
F01E
F01E
FFF8
FFF8
ENDCHAR
STARTCHAR 0433
ENCODING 1075
SWIDTH 592 0
DWIDTH 14 0
BBX 11 11 2 0
BITMAP
FFE0
FFE0
F000
F000
F000
F000
F000
F000
F000
F000
F000
ENDCHAR
STARTCHAR 0434
ENCODING 1076
SWIDTH 847 0
DWIDTH 20 0
BBX 17 15 2 -4
BITMAP
0FFE00
0FFE00
3C1E00
3C1E00
3C1E00
3C1E00
3C1E00
3C1E00
3C1E00
FFFF80
FFFF80
F00780
F00780
F00780
F00780
ENDCHAR
STARTCHAR 0435
ENCODING 1077
SWIDTH 762 0
DWIDTH 18 0
BBX 15 11 2 0
BITMAP
3FF8
3FF8
F01E
F01E
F01E
FFFE
FFFE
F000
F000
3FF8
3FF8
ENDCHAR
STARTCHAR 0436
ENCODING 1078
SWIDTH 847 0
DWIDTH 20 0
BBX 17 11 2 0
BITMAP
F1E780
F1E780
F1E780
F1E780
31E600
3FFE00
3FFE00
F1E780
F1E780
F1E780
F1E780
ENDCHAR
STARTCHAR 0437
ENCODING 1079
SWIDTH 762 0
DWIDTH 18 0
BBX 15 11 2 0
BITMAP
3FF8
3FF8
F01E
F01E
0018
01F8
01F8
F01E
F01E
3FF8
3FF8
ENDCHAR
STARTCHAR 0438
ENCODING 1080
SWIDTH 762 0
DWIDTH 18 0
BBX 15 11 2 0
BITMAP
F01E
F07E
F07E
F3FE
F3FE
F39E
FF9E
FC1E
FC1E
FC1E
F01E
ENDCHAR
STARTCHAR 0439
ENCODING 1081
SWIDTH 762 0
DWIDTH 18 0
BBX 15 18 2 0
BITMAP
783C
783C
1830
1FF0
1FF0
0000
0000
F01E
F07E
F07E
F3FE
F3FE
F39E
FF9E
FC1E
FC1E
FC1E
F01E
ENDCHAR
STARTCHAR 043A
ENCODING 1082
SWIDTH 677 0
DWIDTH 16 0
BBX 13 11 2 0
BITMAP
F078
F078
F1E0
F1E0
F1E0
FF80
FF80
F1E0
F1E0
F078
F078
ENDCHAR
STARTCHAR 043B
ENCODING 1083
SWIDTH 762 0
DWIDTH 18 0
BBX 15 11 2 0
BITMAP
0FFE
0FFE
3C1E
3C1E
3C1E
3C1E
3C1E
3C1E
3C1E
F01E
F01E
ENDCHAR
STARTCHAR 043C
ENCODING 1084
SWIDTH 762 0
DWIDTH 18 0
BBX 15 11 2 0
BITMAP
F01E
F01E
FE7E
FE7E
FE7E
FFFE
F19E
F19E
F19E
F01E
F01E
ENDCHAR
STARTCHAR 043D
ENCODING 1085
SWIDTH 762 0
DWIDTH 18 0
BBX 15 11 2 0
BITMAP
F01E
F01E
F01E
F01E
F01E
FFFE
FFFE
F01E
F01E
F01E
F01E
ENDCHAR
STARTCHAR 043E
ENCODING 1086
SWIDTH 762 0
DWIDTH 18 0
BBX 15 11 2 0
BITMAP
3FF8
3FF8
F01E
F01E
F01E
F01E
F01E
F01E
F01E
3FF8
3FF8
ENDCHAR
STARTCHAR 043F
ENCODING 1087
SWIDTH 762 0
DWIDTH 18 0
BBX 15 11 2 0
BITMAP
FFFE
FFFE
F01E
F01E
F01E
F01E
F01E
F01E
F01E
F01E
F01E
ENDCHAR
STARTCHAR 0440
ENCODING 1088
SWIDTH 762 0
DWIDTH 18 0
BBX 15 18 2 -7
BITMAP
FFF8
FFF8
F01E
F01E
F01E
F01E
F01E
F01E
F01E
FFF8
FFF8
F000
F000
F000
F000
F000
F000
F000
ENDCHAR
STARTCHAR 0441
ENCODING 1089
SWIDTH 762 0
DWIDTH 18 0
BBX 15 11 2 0
BITMAP
3FF8
3FF8
F01E
F01E
F000
F000
F000
F01E
F01E
3FF8
3FF8
ENDCHAR
STARTCHAR 0442
ENCODING 1090
SWIDTH 677 0
DWIDTH 16 0
BBX 13 11 2 0
BITMAP
FFF8
FFF8
0F00
0F00
0F00
0F00
0F00
0F00
0F00
0F00
0F00
ENDCHAR
STARTCHAR 0443
ENCODING 1091
SWIDTH 762 0
DWIDTH 18 0
BBX 15 18 2 -7
BITMAP
F01E
F01E
F01E
F01E
F01E
F01E
F01E
F01E
F01E
3FFE
3FFE
001E
001E
001E
001E
0018
3FF8
3FF8
ENDCHAR
STARTCHAR 0444
ENCODING 1092
SWIDTH 931 0
DWIDTH 22 0
BBX 19 25 2 -7
BITMAP
00F000
00F000
00F000
00F000
00F000
00F000
00F000
3FFF80
3FFF80
F0F1E0
F0F1E0
F0F1E0
F0F1E0
F0F1E0
F0F1E0
F0F1E0
3FFF80
3FFF80
00F000
00F000
00F000
00F000
00F000
00F000
00F000
ENDCHAR
STARTCHAR 0445
ENCODING 1093
SWIDTH 762 0
DWIDTH 18 0
BBX 15 11 2 0
BITMAP
F01E
F01E
3C78
3FF8
07E0
07E0
3FF8
3C78
3C78
F01E
F01E
ENDCHAR
STARTCHAR 0446
ENCODING 1094
SWIDTH 847 0
DWIDTH 20 0
BBX 17 15 2 -4
BITMAP
F01E00
F01E00
F01E00
F01E00
F01E00
F01E00
F01E00
F01E00
F01E00
FFFF80
FFFF80
000780
000780
000780
000780
ENDCHAR
STARTCHAR 0447
ENCODING 1095
SWIDTH 762 0
DWIDTH 18 0
BBX 15 11 2 0
BITMAP
F01E
F01E
F01E
F01E
F01E
301E
3FFE
3FFE
001E
001E
001E
ENDCHAR
STARTCHAR 0448
ENCODING 1096
SWIDTH 889 0
DWIDTH 21 0
BBX 18 11 2 0
BITMAP
F1E7C0
F1E7C0
F1E7C0
F1E7C0
F1E7C0
F1E7C0
F1E7C0
F1E7C0
F1E7C0
FFFFC0
FFFFC0
ENDCHAR
STARTCHAR 0449
ENCODING 1097
SWIDTH 931 0
DWIDTH 22 0
BBX 19 15 2 -4
BITMAP
F1E780
F1E780
F1E780
F1E780
F1E780
F1E780
F1E780
F1E780
F1E780
FFFFE0
FFFFE0
0001E0
0001E0
0001E0
0001E0
ENDCHAR
STARTCHAR 044A
ENCODING 1098
SWIDTH 889 0
DWIDTH 21 0
BBX 18 11 2 0
BITMAP
FE0000
FE0000
1E0000
1E0000
1E0000
1FFF00
1FFF00
1E03C0
1E03C0
1FFF00
1FFF00
ENDCHAR
STARTCHAR 044B
ENCODING 1099
SWIDTH 931 0
DWIDTH 22 0
BBX 19 11 2 0
BITMAP
F001E0
F001E0
F001E0
F001E0
F001E0
FFE1E0
FFE1E0
F079E0
F079E0
FFE1E0
FFE1E0
ENDCHAR
STARTCHAR 044C
ENCODING 1100
SWIDTH 762 0
DWIDTH 18 0
BBX 15 11 2 0
BITMAP
F000
F000
F000
F000
F000
FFF8
FFF8
F01E
F01E
FFF8
FFF8
ENDCHAR
STARTCHAR 044D
ENCODING 1101
SWIDTH 762 0
DWIDTH 18 0
BBX 15 11 2 0
BITMAP
3FF8
3FF8
F01E
F01E
001E
03FE
03FE
F01E
F01E
3FF8
3FF8
ENDCHAR
STARTCHAR 044E
ENCODING 1102
SWIDTH 1016 0
DWIDTH 24 0
BBX 21 11 2 0
BITMAP
F0FFE0
F0FFE0
F1E078
F1E078
F1E078
FFE078
FFE078
F1E078
F1E078
F0FFE0
F0FFE0
ENDCHAR
STARTCHAR 044F
ENCODING 1103
SWIDTH 762 0
DWIDTH 18 0
BBX 15 11 2 0
BITMAP
3FFE
3FFE
F01E
F01E
301E
3FFE
3FFE
F01E
F01E
F01E
F01E
ENDCHAR
STARTCHAR 0450
ENCODING 1104
SWIDTH 762 0
DWIDTH 18 0
BBX 15 18 2 0
BITMAP
1E00
1E00
0200
03C0
03C0
0000
0000
3FF8
3FF8
F01E
F01E
F01E
FFFE
FFFE
F000
F000
3FF8
3FF8
ENDCHAR
STARTCHAR 0451
ENCODING 1105
SWIDTH 762 0
DWIDTH 18 0
BBX 15 18 2 0
BITMAP
3C78
3C78
3C78
3C78
0000
0000
0000
3FF8
3FF8
F01E
F01E
F01E
FFFE
FFFE
F000
F000
3FF8
3FF8
ENDCHAR
STARTCHAR 0453
ENCODING 1107
SWIDTH 592 0
DWIDTH 14 0
BBX 11 18 2 0
BITMAP
03C0
03C0
0200
1E00
1E00
0000
0000
FFE0
FFE0
F000
F000
F000
F000
F000
F000
F000
F000
F000
ENDCHAR
STARTCHAR 0454
ENCODING 1108
SWIDTH 762 0
DWIDTH 18 0
BBX 15 11 2 0
BITMAP
3FF8
3FF8
F01E
F01E
F000
FF80
FF80
F01E
F01E
3FF8
3FF8
ENDCHAR
STARTCHAR 0456
ENCODING 1110
SWIDTH 296 0
DWIDTH 7 0
BBX 4 18 2 0
BITMAP
F0
F0
F0
F0
00
00
00
F0
F0
F0
F0
F0
F0
F0
F0
F0
F0
F0
ENDCHAR
STARTCHAR 0457
ENCODING 1111
SWIDTH 465 0
DWIDTH 11 0
BBX 11 18 -1 0
BITMAP
F1E0
F1E0
F1E0
F1E0
0000
0000
0000
1E00
1E00
1E00
1E00
1E00
1E00
1E00
1E00
1E00
1E00
1E00
ENDCHAR
STARTCHAR 0459
ENCODING 1113
SWIDTH 1101 0
DWIDTH 26 0
BBX 23 11 2 0
BITMAP
3FFE00
3FFE00
3C1E00
3C1E00
3C1E00
3C1FF8
3C1FF8
3C1E1E
3C1E1E
F01FF8
F01FF8
ENDCHAR
STARTCHAR 045A
ENCODING 1114
SWIDTH 1101 0
DWIDTH 26 0
BBX 23 11 2 0
BITMAP
F01E00
F01E00
F01E00
F01E00
F01E00
FFFFF8
FFFFF8
F01E1E
F01E1E
F01FF8
F01FF8
ENDCHAR
STARTCHAR 045B
ENCODING 1115
SWIDTH 762 0
DWIDTH 18 0
BBX 17 18 0 0
BITMAP
3C0000
3C0000
3C0000
FFE000
FFE000
3C0000
3C0000
3C7E00
3C7E00
3FE780
3FE780
3C0780
3C0780
3C0780
3C0780
3C0780
3C0780
3C0780
ENDCHAR
STARTCHAR 045C
ENCODING 1116
SWIDTH 677 0
DWIDTH 16 0
BBX 13 18 2 0
BITMAP
01E0
01E0
0100
0F00
0F00
0000
0000
F078
F078
F1E0
F1E0
F1E0
FF00
FF00
F1E0
F1E0
F078
F078
ENDCHAR
STARTCHAR 045D
ENCODING 1117
SWIDTH 762 0
DWIDTH 18 0
BBX 15 18 2 0
BITMAP
1E00
1E00
0200
03C0
03C0
0000
0000
F01E
F07E
F07E
F1FE
F1FE
F19E
FF9E
FE1E
FE1E
FE1E
F01E
ENDCHAR
STARTCHAR 045E
ENCODING 1118
SWIDTH 762 0
DWIDTH 18 0
BBX 15 25 2 -7
BITMAP
783C
783C
1830
1FF0
1FF0
0000
0000
F01E
F01E
F01E
F01E
F01E
F01E
F01E
F01E
F01E
3FFE
3FFE
001E
001E
001E
001E
0018
3FF8
3FF8
ENDCHAR
STARTCHAR 0490
ENCODING 1168
SWIDTH 677 0
DWIDTH 16 0
BBX 13 21 2 0
BITMAP
0078
0078
0078
FFF8
FFF8
F000
F000
F000
F000
F000
F000
F000
F000
F000
F000
F000
F000
F000
F000
F000
F000
ENDCHAR
STARTCHAR 0491
ENCODING 1169
SWIDTH 592 0
DWIDTH 14 0
BBX 11 15 2 0
BITMAP
01E0
01E0
01E0
01E0
FFE0
FFE0
F000
F000
F000
F000
F000
F000
F000
F000
F000
ENDCHAR
STARTCHAR 0492
ENCODING 1170
SWIDTH 677 0
DWIDTH 16 0
BBX 15 18 0 0
BITMAP
3FFE
3FFE
3C00
3C00
3C00
3C00
3C00
FFE0
FFE0
3C00
3C00
3C00
3C00
3C00
3C00
3C00
3C00
3C00
ENDCHAR
STARTCHAR 0493
ENCODING 1171
SWIDTH 592 0
DWIDTH 14 0
BBX 13 11 0 0
BITMAP
3FF8
3FF8
3C00
3C00
3C00
FFE0
FFE0
3C00
3C00
3C00
3C00
ENDCHAR
STARTCHAR 0496
ENCODING 1174
SWIDTH 931 0
DWIDTH 22 0
BBX 19 22 2 -4
BITMAP
F1E780
F1E780
F1E780
F1E780
F1E780
F1E780
F1E780
F1E780
3FFE00
3FFE00
F1E780
F1E780
F1E780
F1E780
F1E780
F1E780
F1E7E0
F1E7E0
0001E0
0001E0
0001E0
0001E0
ENDCHAR
STARTCHAR 0497
ENCODING 1175
SWIDTH 931 0
DWIDTH 22 0
BBX 19 15 2 -4
BITMAP
F1E780
F1E780
F1E780
F1E780
31E600
3FFE00
3FFE00
F1E780
F1E780
F1E7E0
F1E7E0
0001E0
0001E0
0001E0
0001E0
ENDCHAR
STARTCHAR 049A
ENCODING 1178
SWIDTH 847 0
DWIDTH 20 0
BBX 17 22 2 -4
BITMAP
F01E00
F01E00
F01800
F07800
F07800
F1E000
F1E000
FF8000
FF8000
F1E000
F1E000
F07800
F07800
F01E00
F01E00
F01E00
F01F80
F01F80
000780
000780
000780
000780
ENDCHAR
STARTCHAR 049B
ENCODING 1179
SWIDTH 804 0
DWIDTH 19 0
BBX 16 14 2 -3
BITMAP
F03C
F03C
F1E0
F1E0
F180
FF80
FF80
F1E0
F1E0
F07F
F07F
000F
000F
000F
ENDCHAR
STARTCHAR 049C
ENCODING 1180
SWIDTH 847 0
DWIDTH 20 0
BBX 17 18 2 0
BITMAP
F00780
F00780
F00600
F61E00
F61E00
F67800
F67800
FFE000
FFE000
F67800
F67800
F61E00
F61E00
F00600
F00780
F00780
F00780
F00780
ENDCHAR
STARTCHAR 049D
ENCODING 1181
SWIDTH 762 0
DWIDTH 18 0
BBX 15 11 2 0
BITMAP
F01E
F01E
F678
F678
F678
FFE0
FFE0
F678
F678
F01E
F01E
ENDCHAR
STARTCHAR 049E
ENCODING 1182
SWIDTH 762 0
DWIDTH 18 0
BBX 17 18 0 0
BITMAP
3C0780
3C0780
3C0600
FF9E00
FF9E00
3C7800
3C7800
3FE000
3FE000
3C7800
3C7800
3C1E00
3C1E00
3C0600
3C0780
3C0780
3C0780
3C0780
ENDCHAR
STARTCHAR 049F
ENCODING 1183
SWIDTH 720 0
DWIDTH 17 0
BBX 16 18 0 0
BITMAP
3C00
3C00
3C00
3C00
FF80
FF80
3C00
3C0F
3C0F
3C78
3C78
3C60
3FE0
3FE0
3C78
3C78
3C1E
3C1E
ENDCHAR
STARTCHAR 04A0
ENCODING 1184
SWIDTH 889 0
DWIDTH 21 0
BBX 18 18 2 0
BITMAP
FE03C0
FE03C0
1E0300
1E0F00
1E0F00
1E3C00
1E3C00
1FF000
1FF000
1E3C00
1E3C00
1E0F00
1E0F00
1E0300
1E03C0
1E03C0
1E03C0
1E03C0
ENDCHAR
STARTCHAR 04A1
ENCODING 1185
SWIDTH 847 0
DWIDTH 20 0
BBX 17 11 2 0
BITMAP
FE0F80
FE0F80
1E3C00
1E3C00
1E3C00
1FF000
1FF000
1E3C00
1E3C00
1E0F80
1E0F80
ENDCHAR
STARTCHAR 04A2
ENCODING 1186
SWIDTH 847 0
DWIDTH 20 0
BBX 17 22 2 -4
BITMAP
F01E00
F01E00
F01E00
F01E00
F01E00
F01E00
F01E00
FFFE00
FFFE00
F01E00
F01E00
F01E00
F01E00
F01E00
F01E00
F01E00
F01F80
F01F80
000780
000780
000780
000780
ENDCHAR
STARTCHAR 04A3
ENCODING 1187
SWIDTH 847 0
DWIDTH 20 0
BBX 17 15 2 -4
BITMAP
F01E00
F01E00
F01E00
F01E00
F01E00
FFFE00
FFFE00
F01E00
F01E00
F01F80
F01F80
000780
000780
000780
000780
ENDCHAR
STARTCHAR 04A4
ENCODING 1188
SWIDTH 931 0
DWIDTH 22 0
BBX 19 18 2 0
BITMAP
F01FE0
F01FE0
F01E00
F01E00
F01E00
F01E00
F01E00
FFFE00
FFFE00
F01E00
F01E00
F01E00
F01E00
F01E00
F01E00
F01E00
F01E00
F01E00
ENDCHAR
STARTCHAR 04A5
ENCODING 1189
SWIDTH 974 0
DWIDTH 23 0
BBX 20 11 2 0
BITMAP
F01FF0
F01FF0
F01E00
F01E00
F01E00
FFFE00
FFFE00
F01E00
F01E00
F01E00
F01E00
ENDCHAR
STARTCHAR 04AC
ENCODING 1196
SWIDTH 762 0
DWIDTH 18 0
BBX 15 22 2 -4
BITMAP
FFFE
FFFE
03C0
03C0
03C0
03C0
03C0
03C0
03C0
03C0
03C0
03C0
03C0
03C0
03C0
03C0
03F8
03F8
0078
0078
0078
0078
ENDCHAR
STARTCHAR 04AD
ENCODING 1197
SWIDTH 677 0
DWIDTH 16 0
BBX 13 15 2 -4
BITMAP
FFF8
FFF8
0F00
0F00
0F00
0F00
0F00
0F00
0F00
0FF0
0FF0
00F0
00F0
00F0
00F0
ENDCHAR
STARTCHAR 2018
ENCODING 8216
SWIDTH 381 0
DWIDTH 9 0
BBX 6 6 2 12
BITMAP
3C
3C
F0
F0
F0
F0
ENDCHAR
STARTCHAR 2019
ENCODING 8217
SWIDTH 296 0
DWIDTH 7 0
BBX 6 6 0 12
BITMAP
3C
3C
3C
3C
F0
F0
ENDCHAR
STARTCHAR 201C
ENCODING 8220
SWIDTH 677 0
DWIDTH 16 0
BBX 13 6 2 12
BITMAP
3C78
3C78
F1E0
F1E0
F1E0
F1E0
ENDCHAR
STARTCHAR 201D
ENCODING 8221
SWIDTH 592 0
DWIDTH 14 0
BBX 13 6 0 12
BITMAP
3C78
3C78
3C78
3C78
F1E0
F1E0
ENDCHAR
STARTCHAR 20AC
ENCODING 8364
SWIDTH 847 0
DWIDTH 20 0
BBX 18 18 1 0
BITMAP
01FF00
01FF00
018300
0783C0
0783C0
1E0000
1E0000
7FF800
FFF000
1E0000
7FF800
FFF000
1E0000
1E0000
0F83C0
0F83C0
03FF00
03FF00
ENDCHAR
STARTCHAR 2122
ENCODING 8482
SWIDTH 974 0
DWIDTH 23 0
BBX 20 9 2 8
BITMAP
FFE030
FFE030
1C78F0
1C78F0
1C6630
1C6630
1C6030
1C6030
1C6030
ENDCHAR
STARTCHAR FB00
ENCODING 64256
SWIDTH 931 0
DWIDTH 22 0
BBX 19 18 2 0
BITMAP
07E7E0
07E7E0
040600
3C1E00
3C1E00
3C1E00
3C1E00
FFFFE0
FFFFE0
3C1E00
3C1E00
3C1E00
3C1E00
3C1E00
3C1E00
3C1E00
3C1E00
3C1E00
ENDCHAR
STARTCHAR FB01
ENCODING 64257
SWIDTH 762 0
DWIDTH 18 0
BBX 15 18 2 0
BITMAP
0FC0
0FC0
0C00
3C00
3C00
3C00
3C00
FFFE
FFFE
3C1E
3C1E
3C1E
3C1E
3C1E
3C1E
3C1E
3C1E
3C1E
ENDCHAR
STARTCHAR FB02
ENCODING 64258
SWIDTH 847 0
DWIDTH 20 0
BBX 17 18 2 0
BITMAP
0FFE00
0FFE00
0C1E00
3C1E00
3C1E00
3C1E00
3C1E00
FFFE00
FFFE00
3C1E00
3C1E00
3C1E00
3C1E00
3C1E00
3C1E00
3C1E00
3C0780
3C0780
ENDCHAR
STARTCHAR FB03
ENCODING 64259
SWIDTH 1101 0
DWIDTH 26 0
BBX 23 18 2 0
BITMAP
0FC7E0
0FC7E0
0C0600
3C1E00
3C1E00
3C1E00
3C1E00
FFFFFE
FFFFFE
3C1E1E
3C1E1E
3C1E1E
3C1E1E
3C1E1E
3C1E1E
3C1E1E
3C1E1E
3C1E1E
ENDCHAR
STARTCHAR FB04
ENCODING 64260
SWIDTH 1185 0
DWIDTH 28 0
BBX 25 18 2 0
BITMAP
0FC7FE00
0FC7FE00
0C061E00
3C1E1E00
3C1E1E00
3C1E1E00
3C1E1E00
FFFFFE00
FFFFFE00
3C1E1E00
3C1E1E00
3C1E1E00
3C1E1E00
3C1E1E00
3C1E1E00
3C1E1E00
3C1E0780
3C1E0780
ENDCHAR
ENDFONT
